<?xml version="1.0" encoding="utf-8"?>
<!-- Generator: Adobe Illustrator 24.2.1, SVG Export Plug-In . SVG Version: 6.00 Build 0)  -->
<svg version="1.1" id="Layer_1" xmlns="http://www.w3.org/2000/svg" xmlns:xlink="http://www.w3.org/1999/xlink" x="0px" y="0px"
	 viewBox="0 0 152 334" style="enable-background:new 0 0 152 334;" xml:space="preserve">
<style type="text/css">
	.st0{opacity:0.2;fill:#1B73F0;}
	.st1{fill:#042956;}
	.st2{fill:#F2649E;}
	.st3{fill:#FF7900;}
	.st4{fill:#FFFFFF;}
	.st5{fill:#FF8BB7;}
	.st6{fill:#FFB000;}
	.st7{fill:#010811;}
	.st8{fill:#02132B;}
</style>
<g>
	<path class="st0" d="M178.8,405c0,3.7-31.4,6.6-70.2,6.6s-70.2-3-70.2-6.6c0-3.7,31.4-6.6,70.2-6.6S178.8,401.3,178.8,405z"/>
	<g>
		<path class="st1" d="M81.9,95.9c0.3-0.4,1.5-14.6,9.4-16.6c7.9-2-9.1,16.2-9.1,16.2"/>
		<path class="st2" d="M75.6,131.7c1-2.9,3.4-19,3.4-19l3.7,20.5L75.6,131.7z"/>
		<polygon class="st3" points="14.9,125.6 18.4,97.9 71.6,117.3 71.6,128.8 		"/>
		<polygon class="st4" points="16.5,124.4 20.3,97.4 70.4,115.5 69.7,128.1 		"/>
		<path class="st2" d="M73.8,220.7c0.1,5.6-3.3,64.1,4.2,80.9c7.5,16.8,52.3,53,53.7,61.3c1.5,8.3,6.8-2.9,7.1,6.2
			c0.2,9,4.4,4.4,4.9-4.8c0.5-9.1,0.3,6.2-0.7-3.5c-1-9.6-5.4-12.6-20.2-39.1c-7.9-14.2-20.9-22-20.3-37.9
			c0.6-16,27.3-42.6,28.6-63.2S73.8,220.7,73.8,220.7z"/>
		<path class="st5" d="M125.5,192c0,0,11.9,9.2-1.6,62.5c-13.5,53.3-13.4,51.1-6.9,67.7s-1.5,62.2-2.5,67.1c-1,4.9,3.2,8.6-9.4,11.7
			c-12.6,3.2-16.4,5.7-23.2,3.4s12.3-3.8,16.7-20c4.4-16.2-11.2-75.7-11.2-95.7c0.1-19.9-4.5-74.6-4.5-74.6L125.5,192z"/>
		<g>
			<path class="st1" d="M82.4,57.2c-0.2,0.7,0.1,5,0,7.7s-1.4,4.3,1.1,4.6c2.5,0.3,7.3,1.2,9.4-2.1C94.8,64.1,82.4,57.2,82.4,57.2z"
				/>
			<path class="st5" d="M104.6,41.9c0,0-2.9-9.5-12.1-9.6s-16.2,3.7-14,12.8c2.2,9.2,5.1,19.1,10.1,22.8c0,0,1.9,0.9,4.2,0.6
				l1.1,12.4c0,0,11.3,5.1,16-4.5l-3.5-22.5c0,0,5.9-3.4,5.4-9.5C111.2,38.4,104.6,41.9,104.6,41.9z"/>
			<path class="st2" d="M93.2,70.5l-0.2,0l-0.2-2c0,0,6.2-0.5,10.3-3.9C107.2,61.2,101.4,70.5,93.2,70.5z"/>
			<path class="st1" d="M127.1,46.7c-5.4-8.3-10.4-21.4-20.2-22.5c-2.8-1-5.1-0.6-5.1-0.6s-10.9-2.4-15.1,2.1
				c-3.5,3.8-7.9,1.5-10,8.6c-0.9,2.3-1.5,5.2-0.7,8.4c0,0,0,0,0,0c0.5,3.5,1.8,8.9,4.6,10.5c0,0-0.5-3.8-0.6-7
				c2-0.3,4.4-1.7,6.8-1.9c3.9-0.2,5.6,1.8,9.6-0.2c4.2-0.1,5.4,4.8,6.9,3.4c1.7-1.5,0.5-5.3,4.6-6.6c0,0,3.3-0.8,3.5,4.1
				c0.1,2-0.6,4-1.8,5.6c-0.8,1-1.9,2.2-3.3,3.3c0,0-2,2.7-2.7,6c-0.2,1.3-0.2,2.2-0.1,2.9c-0.2,0.6-0.3,1.2-0.5,1.8
				c-1,5.1,4.2,1.3,8.6,0c4.5-1.3,9.6-4.3,12.1-6.6C126.4,55.6,132.5,55,127.1,46.7z"/>
			<path class="st6" d="M124.7,31.1c-3.1,0.9-8.6-2.6-12.8-3.3c-4.2-0.7-6.7,1.5-6.7,1.5s1.2-1.8,1.4-6.2c0.1-4.4-4.2-6.8-6.8-14.1
				c-2.6-7.2-3,7.2-1.9,12.2c0.6,2.8,2.5,4.4,3.7,5.6c-2.7-2.1-6.6-3.4-12-3c-1.1,0.4-2.1,1-2.8,1.8c-0.8,0.9-1.7,1.4-2.6,1.9
				c0.3-0.1,16.4-4.1,21.6,14.7l0,0c0.5-0.6,1.2-1,2.2-1.3c0,0,0.2,0,0.4,0c-0.3-2.1-0.8-4.6-1.7-7c0.1,0,0.3,0.1,0.4,0.1
				c3.9,1,8.8,0.6,13.8,1C125.9,35.4,127.8,30.2,124.7,31.1z"/>
		</g>
		<path class="st7" d="M93.4,75l0.4,4.3c0,0-0.9-0.5-0.9-0.6C92.8,78.6,92.4,76.8,93.4,75z"/>
		<path class="st8" d="M99.2,77.3c1.2-0.7,9.6-8,11-8.8c1.4-0.8,5.2-0.2,6.9,4.4c1.7,4.6,4.6,6.2,8.3,13.9
			c3.7,7.7,1.1,31.9-2.4,42.5c-3.5,10.6-6.8,28-0.9,39.6c5.9,11.6,16.9,53.4,17.4,68.8c0,0-48.4,13-72.4,6.7c0,0,2.6-74.8,6.9-90
			c4.3-15.1,7.3-23.9,4.6-36.2c-2.7-12.4-3.2-11.6,0.7-20.3c4-8.8,14.1-23,14.1-23S91.2,81.9,99.2,77.3z"/>
		<path class="st6" d="M24.3,129.7l-9.4-4.2c0,0,17.2-12.7,18.4-12.1c1.2,0.6,53,21.2,53,21.2l-20.4,12.2L24.3,129.7z"/>
		<path class="st2" d="M74,154.5c0,0-22.5-8.3-26.8-10.8c-4.3-2.5,33.3,3.1,33.3,3.8C80.4,148.2,74,154.5,74,154.5z"/>
		<g>
			<path class="st5" d="M48.3,135c0,0-2.1-0.5-6-3.4c-3.9-3-6.9-3.4-9.4-4.9c-2.5-1.5-6.2-3.7-4.8-1c1.4,2.7,5.7,4.8,3.2,5.2
				c-2.5,0.5-5.3-0.3-7.1-1.2c-1.8-0.9,2.1,5.5,9.6,10.1s7.6,4.3,14.4,5.3c6.9,0.9,44.6,9.3,50.3,9c5.7-0.3,14.4-19.5,15.3-24.8
				c0,0-5.3-1-12.6-1.7c-7.3-0.7-3.9,0-8.7,10.2C90.5,142.7,64.8,134.6,48.3,135z"/>
			<path class="st1" d="M92.7,129.3c1.8,0.2,22,7.3,24.7,3.5c1.4-1.9,6-31.6,2.7-40.1c-3.2-8.5-11.4-13.8-17.1-5.9
				C97.2,94.7,92.7,129.3,92.7,129.3z"/>
		</g>
		<path class="st8" d="M124.1,360.3c0,0,10.9-18.9,12.7-18.4c1.7,0.5,4.7,6.9,9.4,10.8c4.7,3.8,9.2,5.7,7.8,12.7
			c-1.4,6.9-7.5,16.1-10.4,22.7c-2.8,6.6-5.1,6.9-9.9,6.6c-4.9-0.3-5-3.2-2.3-8.8c2.8-5.7,4-13.7,2.6-16
			C132.6,367.6,124.1,360.3,124.1,360.3z"/>
		<path class="st8" d="M96.5,380c-0.1-0.6,18.9-5.7,21.5-5.1c0,0-1,7.5,0,13c1,5.5,3.7,12.9-5.6,14.9c-9.2,1.9-25.9,5.8-30.5,5
			c-4.6-0.8-8.1-2.8,0-7.8C89.9,394.9,97.9,390.6,96.5,380z"/>
	</g>
</g>
</svg>
