<?xml version="1.0" encoding="utf-8"?>
<!-- Generator: Adobe Illustrator 24.2.1, SVG Export Plug-In . SVG Version: 6.00 Build 0)  -->
<svg version="1.1" id="Layer_1" xmlns="http://www.w3.org/2000/svg" xmlns:xlink="http://www.w3.org/1999/xlink" x="0px" y="0px"
	 viewBox="0 0 187 338" style="enable-background:new 0 0 187 338;" xml:space="preserve">
<style type="text/css">
	.st0{fill:#1B73F0;}
	.st1{fill:none;stroke:#2E53BC;stroke-width:3.6129;stroke-miterlimit:10;}
	.st2{fill:#FF8BB7;}
	.st3{fill:#F2649E;}
	.st4{fill:#6478FF;}
	.st5{fill:#001A49;}
	.st6{fill:#FFFFFF;}
	.st7{fill:#C9DFFF;}
	.st8{fill:#B6D7FF;}
	.st9{fill:#FFB000;}
	.st10{fill:#FF9700;}
	.st11{fill:#A5CFF9;}
	.st12{fill:#F2F2F2;}
	.st13{fill:#FF5D00;}
	.st14{opacity:0.2;fill:#1B73F0;}
</style>
<g>
	<g>
		<path class="st0" d="M145.8,206.1c0,0,1.8-6.7-2.8-11c-4.6-4.2-75.5-16.2-75.5-16.2l-14.8,26.1L145.8,206.1z"/>
		<g>
			<line class="st1" x1="144" y1="206.1" x2="155.2" y2="331.4"/>
			<polyline class="st1" points="62,332.7 69.6,202.4 63.8,199.2 51.2,317 			"/>
			<path class="st1" d="M147.4,240.2c0,0,5.4,15.7-1.6,17.6c-7,1.9-72.2,4.8-81.9-1.5c-9.6-6.3-4.5-22.3-4.5-22.3"/>
			<polyline class="st1" points="145,224.8 68.3,223.3 61.4,216.5 			"/>
		</g>
	</g>
	<g>
		<g>
			<g>
				<path class="st2" d="M96.8,59.2c0,0,1.3,4.9,0.6,7.7c-0.6,2.8-11.4,4-11.4,4l25.7,35.3l17.9-32.5l-4.9-10.8l-3.6-0.5l-1.7-11.7
					L96.8,59.2z"/>
				<path class="st3" d="M105,103.3c2.2,0.7,4.6,0.2,6.8-0.6c7.6-2.8,13.8-8.8,17.1-16.1c0.9-2,1.6-4.1,2-6.3c0.1-0.7,0.2-1.3,0.3-2
					c0.2-1.7,0.3-3.5,0.1-5.3v0c-0.1-0.6-0.2-1.2-0.3-1.8c-0.3-1.4-0.8-2.8-1.5-4.1c-1.5-2.8-4.9-5.4-8.1-6c-1.4,0.4-2.8,1.1-3.5,2
					c-0.8,1.1-1.1,2.5-1.3,3.9c-0.3,2.9-0.1,5.7,0.6,8.5c0.3,1.4,2.3,1.5,2.8,0.2c0.3-0.8,2.6,0.6,2.4,2c-0.5,2.8-2.1,5.3-3.8,7.6
					c-2,2.8-4.2,5.7-6.1,8.6c-2.4,3.6-6.9,4.5-10.3,2.7c-0.4,0.4-0.6,0.9-0.8,1.5C101,100.2,102.8,102.6,105,103.3z"/>
			</g>
			<path class="st3" d="M95,57.5l20.4-1c0,0,4.1,5.5-1.4,10.7C108.6,72.3,95,57.5,95,57.5z"/>
			<path class="st2" d="M107,20.2c-0.8,0.1-17.3,0.3-18.6,11.6c-1.3,11.2,0,33.6,10.9,32.7c10.9-0.9,15.4-4.4,18.6-8.5
				c3.2-4.1,9.8-10.2,9.6-16.6C127.5,33.1,121.1,17.8,107,20.2z"/>
			<path class="st4" d="M106.2,29.9c0.9,0.8,2.3,1,3.5,1.4c2.9,0.9,5.4,3.3,6.4,6.2c0.7-1.9,3.3-2.6,5-1.6c1.7,1,2.4,3.3,1.8,5.2
				c-0.6,1.9-2.3,3.3-4.1,4c-0.9,0.3-1.9,0.5-2.3,1.3c-0.5,0.9-0.1,2,0.3,2.9c0.8,1.7,1.6,3.5,2.5,5.2c0.1,0.2,0.2,0.5,0.4,0.6
				c0.4,0.3,1,0,1.5-0.2c1.5-0.7,3.2-0.8,4.8-0.2c0.9,0.3,1.7,0.8,2.6,0.7c1.1-0.2,1.8-1.2,2.1-2.3c0.3-1.1,0.3-2.2,0.7-3.3
				c0.8-2.5,3.3-4,4.8-6.1c3-4.1,2-10.1-1.2-14.1c-1.2-1.5-2.7-2.8-3.2-4.6c-0.8-2.7,0.7-6-1.1-8.2c-1.9-2.3-5.8-1.2-8.1-3.1
				c-1.4-1.1-2-3.1-3.6-3.7c-2.6-1-4.9,2.4-7.7,2.7c-2.9,0.3-5.5-2.8-8.2-2c-1.7,0.5-2.8,2.3-4.6,2.8c-1.5,0.4-3.1-0.5-4.7-0.2
				c-2.1,0.3-3.3,2.4-4.2,4.3c-2.2,5.1-3.4,10.7-3.5,16.2c0,0.8,0.2,2,1.1,2c0.4,0,0.7-0.2,1-0.4c1.2-1.1,1.5-3,1.9-4.6
				c0.4-1.6,1.1-3.5,2.8-3.9c0.7-0.2,1.4-0.1,2.1-0.3c2.3-0.6,3.6-3.6,6.2-2.6C103.7,25.2,104.3,28.3,106.2,29.9z"/>
			<path class="st2" d="M114.4,37.5c0,0,3-6.4,9-5c6,1.4,3.5,11.6-5.3,15.9C109.3,52.8,114.4,37.5,114.4,37.5z"/>
		</g>
		<g>
			<g>
				<path class="st2" d="M44.7,174.8c-2.2,0.2-4.5,0.5-6,2.1c-1.1,1.1-1.5,2.7-1.8,4.2c-0.4,2.2-0.4,4.6,0.4,6.7
					c0.8,2.1,2.5,4,4.7,4.5c1.2,0.3,2.5,0.2,3.7,0.1c4.5-0.4,9-0.8,13.4-1.2c2.8-0.3,6-0.7,7.7-3c3.1-4.3-0.9-10.8-5-12.8
					C57.1,173,49.6,174.4,44.7,174.8z"/>
				<g>
					<path class="st5" d="M4.8,192c3.6-6,9.6-10.5,16.4-12c2.3-0.5,4.7-0.7,6.6-2c1.1-0.8,1.9-2,2.8-3.1c2.6-3.2,6.4-5.5,10.5-5.7
						c3.6-0.2,8.8,1.7,10,5.4c-3.7,0-6.8,0.5-9.9,2.3c-2.1,3.3-0.8,8,1.3,11.2c0.5,0.8,2,2.8,2,3.8c0.1,1.9-2.6,2-4.3,2.8
						c-3.7,1.9-7.4,3.8-11.1,5.6c-5.1,2.6-10.4,5.3-16.2,5.6c-2.3,0.1-4.6-0.2-6.6-1.3c-1.8-1-3.1-2.8-3.4-4.7
						C2.5,198.9,2.9,195.2,4.8,192z"/>
					<path class="st6" d="M4.8,192c3.6-6,9.6-10.5,16.4-12c2.3-0.5,4.7-0.7,6.6-2c1.1-0.8,1.9-2,2.8-3.1c2.6-3.2,6.4-5.5,10.5-5.7
						c2.5-0.1,5.9,0.8,8.1,2.6c-2.7,1.9-5.9,3.1-9.2,3.3c-2.1,0.2-4.5,0-6.3,1.1c-1.4,0.9-2.3,2.4-3.6,3.5
						c-4.6,4.3-13.2,2.8-16.9,7.8c-0.4,0.6-0.8,1.3-0.9,2c-0.1,1.7,1.3,3.1,2.4,4.4c2.6,3,4.1,6.9,4.2,10.9c-1.9,0.6-3.9,1-6,1.1
						c-2.3,0.1-4.6-0.2-6.6-1.3c-1.8-1-3.1-2.8-3.4-4.7C2.5,198.9,2.9,195.2,4.8,192z"/>
					<g>
						<path class="st7" d="M29,193c-0.1,0.5,0.2,1,0.7,1.1s1-0.2,1.1-0.7c0.1-0.5-0.2-1-0.7-1.1C29.6,192.1,29.1,192.5,29,193z"/>
						<path class="st7" d="M33.5,190.9c-0.1,0.5,0.2,1,0.7,1.1c0.5,0.1,1-0.2,1.1-0.7c0.1-0.5-0.2-1-0.7-1.1
							C34.1,190.1,33.6,190.4,33.5,190.9z"/>
						<path class="st7" d="M38.2,187.7c-0.5-0.1-1,0.2-1.1,0.7c-0.1,0.5,0.2,1,0.7,1.1c0.5,0.1,1-0.2,1.1-0.7
							C39.1,188.4,38.7,187.9,38.2,187.7z"/>
					</g>
					<g>
						<path class="st7" d="M27.1,187.8c-0.1,0.5,0.2,1,0.7,1.1c0.5,0.1,1-0.2,1.1-0.7c0.1-0.5-0.2-1-0.7-1.1
							C27.7,187,27.2,187.3,27.1,187.8z"/>
						<path class="st7" d="M31.5,185.8c-0.1,0.5,0.2,1,0.7,1.1s1-0.2,1.1-0.7c0.1-0.5-0.2-1-0.7-1.1C32.2,185,31.7,185.3,31.5,185.8
							z"/>
						<path class="st7" d="M36.3,182.6c-0.5-0.1-1,0.2-1.1,0.7c-0.1,0.5,0.2,1,0.7,1.1c0.5,0.1,1-0.2,1.1-0.7
							C37.1,183.2,36.8,182.7,36.3,182.6z"/>
					</g>
				</g>
			</g>
			<g>
				<path class="st5" d="M113.1,278.9c0,1.4,0,2.9-0.5,4.3c-0.9,2.2-3.1,3.6-5.3,4.6c-2.2,1-4.5,1.8-6.2,3.5c-1.5,1.4-2.4,3.4-3.8,5
					c-1.3,1.6-3,2.8-4.7,3.9c-7,4.4-24,5.4-25.9,1.1c-2.7-6.2,3-8.2,7.3-12.4c4.3-4.2,9.5-7.4,13.8-11.5c0.8-0.8,1.6-1.6,2-2.6
					c0.9-2.3-0.2-4.8-1.4-7c-0.3-0.6-0.6-1.2-0.7-1.8c-0.1-1.3,0.8-2.5,1.8-3.3c3.7-3,9.3-2.7,13.5-0.4c4.2,2.3,7.3,6.2,9.9,10.1"/>
				<path class="st6" d="M72.1,290.5c3.5,2.3,6.4,5.4,8.4,9.1c6.3-2.5,13-5.3,17.1-10.7c1.6-2.1,2.7-4.6,4.2-6.8
					c1.5-2.2,3.4-4.3,5.9-5.1c1.7-0.6,3.5-0.5,5.2-0.1c0.1,0.7,0.1,1.4,0.1,2c0,1.4,0,2.9-0.5,4.3c-0.9,2.2-3.1,3.6-5.3,4.6
					c-2.2,1-4.5,1.8-6.2,3.5c-1.5,1.4-2.4,3.4-3.8,5c-1.3,1.6-3,2.8-4.7,3.9c-7,4.4-24,5.4-25.9,1.1C64.4,296,68.2,293.7,72.1,290.5
					z"/>
				<g>
					<path class="st7" d="M82.6,287.1c0,0.5,0.4,0.9,0.9,0.9s0.9-0.4,0.9-0.9s-0.4-0.9-0.9-0.9S82.6,286.6,82.6,287.1z"/>
					<path class="st7" d="M87,284.4c0,0.5,0.4,0.9,0.9,0.9c0.5,0,0.9-0.4,0.9-0.9s-0.4-0.9-0.9-0.9C87.4,283.5,87,283.9,87,284.4z"
						/>
					<path class="st7" d="M90.4,279.9c-0.5,0-0.9,0.4-0.9,0.9c0,0.5,0.4,0.9,0.9,0.9s0.9-0.4,0.9-0.9
						C91.4,280.3,90.9,279.9,90.4,279.9z"/>
				</g>
			</g>
			<path class="st7" d="M46.2,194.8c-5,6.6-5.3,15.6-1,22.6c1.8,2.9,3.5,5.5,4.4,6.6c13.3,16.4,30.4,30.8,36.2,51.1
				c0.2,0.8,0.5,1.6,1.1,2.2c0.6,0.5,1.3,0.7,2.1,0.9c8.9,2,18.7-1.2,24.7-8.1c-4.5-17.4-15.8-31.6-29-43.8c-2.7-2.5-5.5-5-7.5-8.2
				c-1.9-3.2-2.8-7.2-1.4-10.6c1.2-2.9,3.7-4.8,6.5-6.3c1.6-0.9,3.4-1.6,5.1-2.3c7.4-3.2,14.4-7.3,20.7-12.2
				c2.1-1.6,4.3-3.6,4.7-6.3c0.3-2.9-1.8-5.6-4.5-6.8c-2.6-1.2-5.7-1.2-8.6-1.1c-7.5,0.3-14.9,1.4-22.1,3.2l4-1.3
				c-2.3,0.7-4.6,1.3-6.9,2.1c-4,1.1-8,2.5-11.8,4l4.6-1.5c-5.1,2-10,4.5-14.2,8c-1.1,0.9-2.1,1.9-3.1,2.9
				C48.8,191.4,47.5,193.1,46.2,194.8z"/>
			<path class="st8" d="M69.6,202.4c5,1.4,7.7,0,12.7-1.2c1.6-0.9,3.4-1.6,5.1-2.3c7.4-3.2,14.4-7.3,20.7-12.2
				c2.1-1.6,4.3-3.6,4.7-6.3c0.3-2.9-1.8-5.6-4.5-6.8c-2.6-1.2-5.7-1.2-8.6-1.1c-7.5,0.3-14.9,1.4-22.1,3.2l4-1.3
				c-2.3,0.7-4.6,1.3-6.9,2.1c-4,1.1-8,2.5-11.8,4l4.6-1.5c-5.1,2-10,4.5-14.2,8C52.2,187.9,57.9,199,69.6,202.4z"/>
			<g>
				<path class="st2" d="M40.2,145.4c-1.3,2.2-2.7,4.7-1.9,7.1c0.6,1.8,2.3,3.1,4.1,3.5c1.8,0.5,3.8,0.2,5.5-0.4
					c4.3-1.4,8-4.6,10.6-8.4c2.6-3.8,4.2-8.1,5.5-12.5c0.7-2.6,1.4-5.4,0.2-7.8c-2.6-5.2-10.7-4.1-13.6,0.2
					C46.8,132.9,43.7,139.5,40.2,145.4z"/>
				<path class="st9" d="M47.5,132.2c2.2,2.3,11.5,5,15.4,6h0c1.1,0.3,1.7,0.4,1.7,0.4c0.6-0.6,1.2-1.5,1.9-2.7
					c3.1-5.6,6.5-16.1,6.1-12.4c-0.4,4.3-1.5,34.5,3.9,36.8c0.2,0.1,0.4,0.1,0.6,0.1l52.2,3.7l12.1-12.9l1.2-1.2
					c-0.2-5.3-0.4-11.7,0.5-16c0.1-0.5,0.2-0.9,0.2-1.5c0-0.3,0.1-0.5,0.1-0.8c0-0.3,0.1-0.5,0.1-0.8c0-0.3,0-0.6,0.1-0.9
					c0-0.4,0-0.7,0-1.1c0-1.5,0-3.1-0.1-4.7c0-0.4,0-0.9-0.1-1.3c-0.1-1.3-0.2-2.6-0.3-3.8c0-0.2,0-0.4-0.1-0.6c0-0.2,0-0.4-0.1-0.5
					v0c0-0.2,0-0.4-0.1-0.5c0-0.2,0-0.4-0.1-0.5c-0.1-0.5-0.1-1-0.2-1.5c0-0.1,0-0.3,0-0.4c0-0.4-0.1-0.7-0.1-1c0-0.2,0-0.3-0.1-0.5
					c-0.1-0.7-0.2-1.2-0.2-1.3l4.2,11.2c0,0,2.1-0.9,4.9-1.9c5.2-1.8,12.8-4,14.3-1.8c0.5-2,1-4,1.3-6.1c1.2-7.7,1-15.7-0.7-23.3
					c-0.1-0.4-0.1-0.8-0.3-1.2c0-0.1-0.1-0.2-0.1-0.3c-0.3-1.1-0.6-2.3-1-3.4l-4-4.4c0,0.3,0.1,0.6,0.1,0.9
					c-5.1-4.3-12.8-6.8-19-9.1c-2.4-0.9-4.5-1.7-6.2-2.6c-0.4-0.2-0.8-0.4-1.2-0.6c-3.5-1.8-6.7-3-9.2-3.8c0.1,2,0.5,4,0.7,6.1
					c0.1,1.4,0.1,2.8-0.1,4.2c-0.5,2.8-2.1,5.3-3.8,7.6c-2,2.8-4.2,5.7-6.1,8.6c-2.4,3.6-6.9,4.5-10.3,2.7c-1.2-0.6-2.2-1.6-3-2.9
					c-1.6-2.7-3.1-5.5-4.4-8.4c-1.9-4.3-3.4-8.9-4-13.6c-0.3-1.9-2.2-3.1-4-2.4c-9.2,3.5-21.5,8.4-24.9,11.1
					c-5.5,4.4-16.7,48.8-18.5,51.9C46.9,131.3,47.1,131.7,47.5,132.2z"/>
				<path class="st10" d="M72.7,123.5c-0.4,4.3-1.5,34.5,3.9,36.8c1.4-3.2,2.4-6.6,3.2-10c1.3-5,2.4-10.1,2.7-15.3
					c0.4-7.7-1-15.4-2.4-23c-0.3-1.8-0.8-3.8-2.4-4.7c-0.9-0.5-2-0.6-3-0.4c-4.2,0.8-6.6,5.3-7.7,9.4c-1.7,6.6-0.9,12.8-0.5,19.4
					C69.7,130.3,73.1,119.8,72.7,123.5z"/>
				<path class="st10" d="M132.1,84c3.6,9.8,4.5,20.4,5.1,30.9c0.6,9.7,0.7,19.5,1.4,29.2c0.3,3.7,1.5,6.2,2.9,7.2l1.2-1.2
					c-0.2-5.3-0.4-11.7,0.5-16c1.5-7.3-0.7-21-0.8-21.6l4.2,11.2c0,0,2.1-0.9,4.9-1.9c0.1-0.7,0.2-1.5,0.4-2.3
					c0.5-3.1,1-6.3,0.3-9.3c-1-4.5-4.3-8-6.4-12.1c-3-5.6-3.9-12-6-18c-2.1-6-6.3-11.9-12.5-13.2C127,72.9,130,78.4,132.1,84z"/>
				<path class="st2" d="M121,74.2c0.3,1.4,2.3,1.5,2.8,0.2c0.3-0.8,0.7-1.6,1.4-2c0.3-0.2,0.7-0.3,1.1-0.3c0.3,0,0.5,0,0.8,0
					c0.3,0,0.5,0.1,0.8,0.2c1.3,0.3,2.5,0.9,3.5,1.9c1.5,1.4,2.5,3,3.2,4.7c0.7,1.7,1.2,3.5,1.5,5.4c2.1,10.2,2.3,20.9,5.8,30.7
					c0.4,1,0.8,2,1.2,3v0c2,4.8,4.7,9.3,7.4,13.7c1.7,2.9,3.8,6,7.1,6.4c1.8,0.2,3.7-0.5,5.2-1.6c4.6-3.2,6.6-9.2,6.3-14.8
					c-0.2-2.8-0.9-5.5-2-8c-1.1-2.6-2.4-5.1-4-7.5c-3-4.7-6.6-9-9.6-13.8c-3.6-5.8-6.7-12.1-10.5-17.8c-0.3-0.5-0.6-1.1-0.9-1.7
					c-1.2-2.8-2-6.5-4.1-8.2c-2.6-2.2-4.8-3.6-7.9-5c-1.3-0.6-3.3-0.6-5-0.1c-1.4,0.4-2.8,1.1-3.5,2c-0.8,1.1-1.1,2.5-1.3,3.9
					C120.1,68.6,120.3,71.5,121,74.2z"/>
			</g>
			<g>
				<path class="st11" d="M178.8,151.5c0.1,5.6-2.7,11-6.2,15.3c-3.6,4.4-7.9,8-11.8,12.1c-4.4,4.7-8.3,9.9-13.5,13.8
					c-10.1,7.5-24.7,8.1-35.5,1.7c-2.6-1.6-5.1-3.7-6.5-6.4c-3.4-6.7,0.8-15.2,6.9-19.5c6.2-4.3,13.8-5.8,20.9-8.3
					c10.3-3.6,19.7-9.3,28.7-15.3c3.8-2.6,7.3-7.2,11.7-4.3C176.9,142.7,178.7,147.6,178.8,151.5z"/>
				<path class="st7" d="M170.1,138c-6.9-1.5-13.8,1.7-20.2,4.8c-30.3,14.3-63.6,22.6-96.7,27.9c3.6,10.4,2.6,16.8,10.6,24.2
					c14.2,1.4,34,0.9,45.3-4.6c7.3-3.6,14.1-8.2,21.6-11.3c6.9-2.8,14.3-4.2,21.3-6.5c7.1-2.3,14.1-5.8,18.5-11.8
					S174.6,144,170.1,138z"/>
			</g>
		</g>
		<g>
			<polygon class="st12" points="17.5,142.5 62.1,155.9 38.2,163 26.6,156.4 			"/>
			<polygon class="st12" points="15.6,137.8 57.3,151.3 34.1,159.6 			"/>
			<path class="st6" d="M70.5,149.9l0.5,4.3c0,0-16.9,0.6-23.6,3c-6.7,2.4-11.2,5.9-11.2,5.9l-4.9-2.1l-2.7-2.9c0,0-1.1-8.1-6.5-8.6
				c-5.4-0.5-9.6-12.1-9.6-12.1h3.8c0,0,2.4,4.1,4.8,6.2c2.4,2.1,7,3.4,9.3,7.5c2.2,4.1,3.8,6.1,3.8,6.1l2.7,1.1
				c0,0,4.6-4.8,12.9-6.2C58.1,150.7,70.5,149.9,70.5,149.9z"/>
			<polygon class="st13" points="10.5,136.7 8.1,137 30.8,162.7 33.5,162.4 			"/>
		</g>
		<polygon class="st13" points="71.5,150.5 36.2,163.2 54.4,170.8 106.4,160.3 		"/>
		<path class="st2" d="M29.1,160.8c-0.8-0.9,0.1-2.9,1.2-2.9c1.1-0.1,2.1,0.9,2.9,1.8c1.4,1.6,2.9,3.2,4.3,4.8
			c0.4,0.5,0.9,0.9,1.4,1.1c0.5,0.2,1.1,0,1.7-0.1c4.4-1.1,8.9-1.9,13.4-2.4c2.4-0.3,5-0.4,7.2,1c-0.5,2.2-1.8,3.9-3.4,5
			c-1.6,1.1-3.4,1.6-5.1,2c-4.5,1.1-9.1,1.6-13.8,1.7c-1.3,0-2.6,0-3.8-0.7c-1.3-0.7-2.3-2.2-3.1-3.7L29.1,160.8z"/>
	</g>
	<path class="st14" d="M183,322.7c0,8-35.8,14.5-79.9,14.5s-79.9-6.5-79.9-14.5c0-8,35.8-14.5,79.9-14.5S183,314.7,183,322.7z"/>
</g>
</svg>
