<?xml version="1.0" encoding="utf-8"?>
<!-- Generator: Adobe Illustrator 24.2.1, SVG Export Plug-In . SVG Version: 6.00 Build 0)  -->
<svg version="1.1" id="Layer_1" xmlns="http://www.w3.org/2000/svg" xmlns:xlink="http://www.w3.org/1999/xlink" x="0px" y="0px"
	 viewBox="0 0 131 147" style="enable-background:new 0 0 131 147;" xml:space="preserve">
<style type="text/css">
	.st0{opacity:0.2;fill:#1B73F0;enable-background:new    ;}
	.st1{fill:#2E53BC;}
	.st2{fill:#284C8C;}
	.st3{fill:#FF9700;}
	.st4{opacity:0.22;fill:#D38C0D;enable-background:new    ;}
	.st5{fill:#6478FF;}
	.st6{fill:#FFB000;}
	.st7{opacity:0.54;}
	.st8{fill:none;stroke:#FF9700;stroke-width:0.6411;stroke-miterlimit:10;}
	.st9{fill:#FCB4D2;}
	.st10{fill:#FC86BC;}
	.st11{fill:#02132B;}
	.st12{fill:#042956;}
	.st13{opacity:0.15;fill:#D38C0D;enable-background:new    ;}
	.st14{fill:#FFFFFF;}
	.st15{fill:#FF5D00;}
	.st16{fill:none;stroke:#FF5D00;stroke-width:1.2822;stroke-miterlimit:10;}
	.st17{fill:#DD4D05;}
	.st18{fill:#F2F2F2;}
	.st19{fill:#FCECDB;}
	.st20{fill:#699DEE;}
	.st21{fill:#548EE2;}
	.st22{fill:#F4D2B8;}
	.st23{fill:#2B478B;}
	.st24{fill:#568CDB;}
	.st25{fill:#B5453C;}
	.st26{fill:#F99746;}
	.st27{fill:#ED7D2B;}
	.st28{fill:#233862;}
	.st29{fill:#FFB27D;}
	.st30{fill:#ED975D;}
</style>
<g>
	<path class="st0" d="M219.9-111.9c0,6.8-56.1,12.3-125.3,12.3s-125.3-5.5-125.3-12.3s56.1-12.3,125.3-12.3
		C163.8-124.3,219.9-118.7,219.9-111.9z"/>
	<g>
		<path class="st1" d="M174.9-116.3l-22.5,2.5c-6.2,0.7-12.4,1-18.6,0.9c-15.4-0.3-36.7-5.2-43.7-3.7c-28.7,6.3-82.7,5-82.7,5
			l1.1-9.6l0.8-6.8c0,0,7.4-0.3,17.4-0.9c18.2-1,45-2.9,51.3-4.9c1.7-0.5,4.8-1.4,8.9-2.3c20.1-4.8,63-13.5,63-13.5L174.9-116.3z"/>
		<path class="st2" d="M86.9-136.1c-1.5,1.1-3.4,2-4.5,2.8c-3.5,2.3-7.1,4.5-11,6.1c-4.2,1.7-8.7,2.6-12.9,4.3
			c-4,1.6-7.6,4-11.6,5.5c-4.4,1.7-9.2,2.2-13.9,2.5c-8.1,0.6-16.3,0.7-24.5,0.2c-0.3,0-0.5,0-0.8-0.1l0.7-6.3
			c4.3-2.8,9.2-4.6,14.1-6.3c1.4-0.5,2.7-0.9,4.1-1.4c18.2-1,45-2.9,51.3-4.9C79.6-134.3,82.8-135.1,86.9-136.1z"/>
		<path class="st3" d="M158.4-181.9c0.3,4.7-2,9.3-4.9,13.1c-2.8,3.8-6.3,7.1-8.9,11.1c-0.9,1.4-1.7,3.4-0.7,4.8
			c0.5,0.7,1.3,1,2.2,1.1c3.1,0.6,6.3-0.7,9.1-2.2c7-3.9,13-9.5,16.7-16.6c1.7-3.2,2.8-6.8,2.7-10.5c-0.1-3.6-1.6-7.3-4.4-9.6
			c-2.6-2-7.4-3-10.4-1.2C156.3-189.9,158.2-185.2,158.4-181.9z"/>
		<path class="st4" d="M163.4-180.6c-1.9,4-1.7,8.6-3.5,12.6c-2.3,4.8-7.2,7.9-9.9,12.5c-0.7,1.1-1.2,2.3-1.2,3.6
			c0,1.3,0.5,2.7,1.7,3.3c0.7,0.4,1.6,0.5,2.4,0.5c4.8,0.1,9.4-2.3,13.2-5.3c7.9-6.2,13.7-15.4,14.5-25.5c0.3-3.4-0.6-12-5.6-11.9
			C170.8-190.5,165-183.9,163.4-180.6z"/>
		<path class="st5" d="M159.6-149c0,0-49.7-23.9-58.8-23.1C91.6-171.4,29-134,29-134l13.3,10.9c0,0,42-14.8,56.3-18.7
			c12-3.3,60.9,24.2,71.8,25.4c10.9,1.2,29.4-6.9,29.4-6.9L159.6-149z"/>
		<g>
			<g>
				<path class="st6" d="M127.6-165.2l-5.5-1.4c-1.4-0.4-2.5,1.2-1.7,2.4c1.3,2,3.2,3.8,5.1,5.3c7.7,6.3,16.5,11.3,26.1,14.1
					c1.7,0.5,0.9-9.3,0.7-10.1c-0.7-2.4-1.9-6.1-4.4-7.2c-2.2-1-5.6-0.3-8-0.6C135.8-163.1,131.7-164.1,127.6-165.2z"/>
				<g class="st7">
					<path class="st4" d="M135.4-158.1c3.2-1.3,6.3-2.8,9.2-4.6c-1.6,0-3.2,0.1-4.6,0c-0.6-0.1-1.3-0.1-1.9-0.2
						C136.6-161.6,135.4-160,135.4-158.1z"/>
					<path class="st4" d="M152.4-154.9c-0.7-2.4-1.9-6.1-4.4-7.2c-0.4-0.2-0.9-0.3-1.5-0.4c-1.5,2.6-3.1,5.1-5.6,6.7
						c-0.8,0.5-1.7,1.1-1.6,2c0.1,0.7,0.8,1.2,1.2,1.8c0.6,0.9,0.6,1.9,0.3,3c3.5,1.7,7.1,3.2,10.9,4.2
						C153.4-144.3,152.6-154.1,152.4-154.9z"/>
				</g>
			</g>
			<g>
				<path class="st6" d="M208.4-196.8c1.5,8.1,0.3,16.5-1.3,24.7c-1.6,8.1-3.4,16.3-3,24.6c0.1,3.1,0.6,6.2,0.5,9.3
					c-0.2,3.1-0.9,6.2-2.1,9.1c-1.9,5-5,9.8-9.8,12.2c-1.9,1-4,1.5-6,1.9c-15.6,3.2-32.5-0.2-45.6-9.2c-3.8-2.6-7.5-5.7-11.5-8
					c-3.6-2-3.6-7.1-0.1-9.2c5.9-3.5,12.3-6.3,18.9-8.2c3-0.9,6.2-1.6,8.8-3.4c5.8-3.9,7.5-11.6,8.5-18.5c1-6.9,2.1-14.6,7.4-19.1
					c2.4-2.1,17-22,19.7-23.7c2.9-1.8,4.9-0.2,7.3,1.9C204.5-208.4,207.3-202.6,208.4-196.8z"/>
				<path class="st4" d="M190.7-127c-1,1.5-2,3.3-3.8,3.8c-2.4,0.7-4.9-1.4-7.2-0.7c-1.4,0.4-2.3,1.7-3.6,2.3c-2,1-4.5,0.4-6.6,1.2
					c-2.4,0.9-3.6,3.2-4.2,5.8c7.1,1.1,14.3,1,21.3-0.4c2.1-0.4,4.2-1,6-1.9c4.8-2.4,7.9-7.2,9.8-12.2c0.8-2,1.4-4,1.7-6.1
					c-0.7,0.1-1.4,0.2-2,0.4C197.6-133.8,193.4-130.9,190.7-127z"/>
			</g>
			<path class="st8" d="M129.6-135.1c7.8-5.8,18.3-6.8,26.5-12.1c6.7-4.3,11.7-11.3,13.3-19.1c0.7-3.1,0.9-6.2,2-9.1
				c1.6-4.2,4.9-7.5,7.6-11c3.2-4.1,5.6-8.8,7.3-13.7c1.4-4.1,2.3-8.6,5.3-11.7"/>
			<path class="st4" d="M192.9-209.6c-2.6,1.7-4.2,4.6-5.4,7.5c-2.3,5.4-3.9,11.1-5,16.8c-0.6,3.1-1.1,6.3-2.2,9.2
				c-1.1,3-2.9,5.8-5.7,7.4c-3.3,2-7.5,1.8-11.2,1c-0.9-0.2-1.8-0.4-2.6-0.3c-3.1,0.2-4.8,4.2-3.8,7.1c1,2.9,3.9,4.8,6.8,6
				c5.1,2,10.9,2.3,16.1,0.8c2.8-0.8,5.6-2.2,7.6-4.3c1.9-2.1,3.1-4.7,4.3-7.3c2.9-6.5,5.8-13,8.7-19.5c1.7-3.8,3.4-7.7,4-11.9
				C205.1-203.3,201.1-215,192.9-209.6z"/>
		</g>
		<path class="st9" d="M148.1-168.2c0,0-1.8-1-4.5-4.8s-5.3-5-7.2-7.1c-1.9-2.1-4.6-5.1-4.1-2.3s3.9,5.9,1.5,5.6
			c-2.4-0.3-10.3-7.9-11.7-7.6c-1.9,0.4,5.9,10.1,11.5,16.4c5.6,6.3,5.7,6,11.7,8.8C151.3-156.3,163.3-164,148.1-168.2z"/>
		<path class="st5" d="M153.8-242.7c-0.2,1.5,0,3.2-0.6,4.6c-0.9,2-3.4,3.3-3.5,5.5c-0.1,2.4,2.8,3.8,3.6,6c1.2,3.1-1.8,6.5-1.5,9.8
			c0.1,1.6,1,2.9,1.8,4.3c0.2,0.3,0.4,0.5,0.6,0.6c0.3,0,0.6-0.2,0.8-0.4c1.5-1.4,2.9-3,4.8-3.6c1.6-0.5,3.3-0.1,5-0.1
			c1.7,0.1,3.5-0.2,4.5-1.6c0.8-1.1,0.8-2.5,0.8-3.8c0-1.6-0.1-3.2-0.3-4.8c-0.2-1.8-0.4-3.7-1.1-5.4c-0.8-1.9-2.1-3.6-3.4-5.3
			c-1.7-2.1-3.4-4.2-5.1-6.3C158.3-245.7,154.4-247.3,153.8-242.7z"/>
		<g>
			<path class="st9" d="M167-222.2c0,0,5.7,5.1,5.1,10.4c-0.9,7.8,14.4-4.8,14.4-4.8l-11.6-14.2L167-222.2z"/>
			<path class="st10" d="M170.5-217.8c0,0,4.1-0.6,6.1-3.5c0,0,0.1,3.4-4.8,6.6L170.5-217.8z"/>
			<path class="st9" d="M166.3-247.5c0,0-8.9,2.7-9.3,8.7c-0.4,5.9,5.4,22.6,12,21.7c6.7-1,9.4-6.1,11.9-9.9
				C191.4-242.9,173.8-252.1,166.3-247.5z"/>
		</g>
		<g>
			<path class="st11" d="M154.7-177.4c0.2,0.7,0.6,1.4,1.3,1.6c0.5,0.1,1.1-0.3,1.5-0.7c1.4-1.4,2.2-3.4,3.7-4.7
				c0.9-0.7,1.9-1.1,2.9-1.5c5.1-2.2,9.6-5.8,12.9-10.3c0.9-1.3,1.8-2.6,2.9-3.7c1.1-1,2.4-1.8,3.6-2.7c3.5-2.5,6.2-6.1,7.7-10.1
				c0.5-1.2,0.8-2.5,0.5-3.8c-0.4-1.9-2.2-3.3-4.1-3.7c-1.9-0.4-3.9,0-5.7,0.7c-3.2,1.2-6.1,3.3-9.4,3.9c-3.7,0.6-7.7-0.5-11.1,1.1
				c-4.7,2.3-7.9,10.5-9.4,15.3C150.1-189.7,152.7-183.1,154.7-177.4z"/>
			<path class="st12" d="M172.5-212.9c1.7-0.7,3.2-1.9,4.7-3c3.4-2.4,7.5-4,11.6-4.6c2.5-0.4,5.7,0.1,6.4,2.5
				c0.4,1.3-0.2,2.8-0.9,3.9c-1.6,2.4-4.2,4.1-6,6.4c-1.3,1.6-2.3,3.6-3.5,5.3c-3.5,5.3-8.7,9.3-14.7,11.3
				c-3.4,1.1-7.2,1.6-10.6,0.4c-3.4-1.2-6.3-4.2-6.5-7.8c-0.1-2.4,0.9-4.7,2-6.9c1.2-2.3,2.4-4.6,4.4-6.2
				C164.1-215.4,167.9-211.1,172.5-212.9z"/>
		</g>
		<g>
			<path class="st3" d="M201.6-151.8c-2.8,3.1-5.9,6-9.7,7.6c-4.4,1.9-9.4,1.9-14.3,1.8c-13.7-0.4-28.1-2-39.4-9.8
				c1.9-5.6,4.5-11,7.7-16.1c0.3-0.5,0.6-0.9,1.1-1.2c0.6-0.2,1.2,0,1.8,0.2c2.1,0.7,4.3,1.3,6.5,1.9c3.2,0.9,6.4,1.6,9.7,2.2
				c2.5,0.4,5,0.8,7.5,1.1c1.8,0.2,3.8,0.3,5.5-0.3c3.5-1.3,4.8-5.2,5.5-9c0.1-0.7,0.3-1.4,0.4-2.1c0.1-0.8,0.2-1.5,0.3-2.3
				c0.9-6,2.1-12,3.5-17.9c1.1-4.6,2.5-9.4,5.9-12.7c5.4-5.2,9.2-4.4,14.5,4.8C212.6-196,209-160,201.6-151.8z"/>
			<path class="st13" d="M187.6-166.1c-2,2.3-4.6,3.9-6.5,6.3c-1.2,1.5-2.2,3.4-3.9,4.2c-2.2,1.1-4.9,0.1-7.2-0.9
				c-5.2-2.3-10.5-4.9-13.9-9.4c-0.3-0.4-0.6-0.9-0.7-1.4c3.2,0.9,6.4,1.6,9.7,2.2c2.5,0.4,5,0.8,7.5,1.1c1.8,0.2,3.8,0.3,5.5-0.3
				c3.5-1.3,4.8-5.2,5.5-9c0.1-0.7,0.3-1.4,0.4-2.1c0.1-0.8,0.2-1.5,0.3-2.3C189.3-177.1,191.8-171,187.6-166.1z"/>
		</g>
		<path class="st11" d="M10.6-134.8c-2.4-1.2-4-3.7-6.5-4.6c-0.5-0.2-1.2-0.3-1.7,0c-1.1,0.5-1.3,2-1.2,3.2
			c0.7,8.7,7.2,16.7,15.6,19.1c1.8,0.5,4.4-0.7,5.2,1c0.4,0.9-3.8,5.6-3.2,6.4c1.2,1.6,7.5-1,9.2-2c1.9-1.1,3.9-2.2,5.8-3.4
			c0.9-0.5,7.5-5.5,8.1-6.4c0.8-1.2,0.8-2.7,0.6-4c-0.5-3.2-2.1-6-3.8-8.8c-2-3.4-4-5.4-8.4-3.4C26.2-135.8,19.5-130.3,10.6-134.8z"
			/>
		<path class="st11" d="M-2.4-135.7c-3-3.1-5.1-7.1-6.1-11.3c-0.3-1.2-0.7-2.5-1.8-2.9c-0.9-0.3-1.9,0.2-2.4,0.9
			c-0.6,0.7-0.8,1.6-1.1,2.5c-1.3,4.9-1.9,10-1.9,15c0,1.7,0.1,3.4,0.7,5c1.5,3.7,5.8,5.7,7.4,9.4c0.3,0.7,0.5,1.5,0.4,2.3
			c-0.2,1.4-4.7,2.6-4.5,4c0.3,1.6,5.6,2.1,7.3,2.2c3.4,0.2,6.9,0,10.3-0.5c1.7-0.3,3.5-0.7,4.5-2.1c0.9-1.2,1-2.8,1-4.2
			c0.1-3.3,1.3-12.5-2-14.5c-1.4-0.9-3.8-0.8-5.4-1.4C1.6-132.4-0.6-133.9-2.4-135.7z"/>
		<g>
			<polygon class="st14" points="108.5,-200.9 110.7,-202.7 117.8,-194.1 135.2,-199 135.3,-195.9 116.1,-191.4 			"/>
			<polygon class="st15" points="118.6,-192.3 135.3,-195.9 159.6,-173.8 142.6,-169.6 			"/>
			<line class="st16" x1="108.3" y1="-200.8" x2="117" y2="-190.5"/>
			<path class="st17" d="M118.6-192.3c0,0-1.8,1.6-4,0.4l25.9,23.5l2.1-1.2L118.6-192.3z"/>
			<polygon class="st18" points="135.2,-199 159.9,-176.7 159.6,-173.8 135.3,-195.9 			"/>
		</g>
		<g>
			<path class="st5" d="M162.3-244.1c2,0.4,3.4,1.1,4.2,3c0.7,1.7,0.7,3.7,2,5c2.2,2.4,6.9,1.2,8.7,3.9c1,1.5,0.6,3.4-0.1,5
				c-0.7,1.6-1.6,3.2-1.7,4.9c-0.1,2.3,1.3,4.5,2.9,6.2c0.3,0.3,0.8,0.7,1.2,0.5c0.2-0.1,0.4-0.4,0.5-0.6c1.4-2.4,4.5-3.4,7.3-3.2
				c2.2,0.1,4.7,0.5,6.1-1.1c1.1-1.2,1-3.1,1.8-4.5c1.4-2.5,5.1-2.7,7.1-4.7c0.4-0.4,0.7-0.8,0.6-1.4c-0.1-1.1-1.7-1.3-2.8-1.4
				c-2.6-0.4-4.7-2.7-4.9-5.3c-0.1-1.1,0.2-2.3-0.1-3.4c-0.6-2.3-3.4-3.3-5-5.1c-1.5-1.6-16.2-21.1-31.1-4.8c-1.1,1.3-3,4.4-2.7,6.2
				C156.7-242.7,160.1-244.5,162.3-244.1z"/>
			<path class="st9" d="M171.1-236.3c0,0,0-5.4,4.7-6.4s6.2,7,1.4,12.8C172.4-224,171.1-236.3,171.1-236.3z"/>
		</g>
	</g>
</g>
<g>
	<g>
		<g>
			<path class="st19" d="M53.7,132.2h-51v-18h51.2c4,0,7.2,3.2,7.2,7.2v3.4C61.1,128.9,57.8,132.2,53.7,132.2z"/>
			<path class="st20" d="M104.6,121.6v2.7c0,1.4-0.4,2.8-1.1,4c-1.4,2.3-3.9,3.9-6.8,3.9H1.1c-0.6,0-1.1-0.5-1.1-1.1v-0.4
				c0-0.6,0.5-1.1,1.1-1.1h58.2c0.3-0.4,0.6-0.8,0.8-1.2c0.5-1,0.9-2.2,0.9-3.4v-3.4c0-0.6-0.1-1.2-0.2-1.8c-0.3-1-0.7-1.9-1.4-2.7
				H1.1c-0.6,0-1.1-0.5-1.1-1.1v-0.4c0-0.6,0.5-1.1,1.1-1.1h96c3.4,0,6.2,2.3,7.1,5.4C104.5,120.3,104.6,120.9,104.6,121.6z"/>
			<path class="st21" d="M104.3,119.6H60.8c-0.3-1-0.7-1.9-1.4-2.7H1.1c-0.6,0-1.1-0.5-1.1-1.1v-0.4c0-0.6,0.5-1.1,1.1-1.1h96
				C100.6,114.2,103.4,116.5,104.3,119.6z"/>
		</g>
		<polygon class="st22" points="2.7,123.2 9.8,123.5 2.7,123.7 		"/>
		<polygon class="st22" points="2.7,126.1 19.5,126.4 2.7,126.6 		"/>
	</g>
	<g>
		<g>
			<g>
				<path class="st23" d="M14.9,146.2h54.3v-14H14.4c-3.7,0-6.8,3-6.8,6.8v0C7.6,143,10.9,146.2,14.9,146.2z"/>
				<path class="st19" d="M66,146.2h61.8v-14H65.9c-3.8,0-6.9,3.1-6.9,6.9v0.1C59,143.1,62.1,146.2,66,146.2z"/>
				<path class="st23" d="M54.9,146.2H130c0.6,0,1-0.5,1-1l0,0c0-0.6-0.5-1-1-1H54.9c-0.6,0-1,0.5-1,1l0,0
					C53.8,145.7,54.3,146.2,54.9,146.2z"/>
				<path class="st23" d="M54.9,134.3H130c0.6,0,1-0.5,1-1l0,0c0-0.6-0.5-1-1-1H54.9c-0.6,0-1,0.5-1,1l0,0
					C53.8,133.8,54.3,134.3,54.9,134.3z"/>
			</g>
			<polygon class="st22" points="127.8,139.2 119.5,139.4 127.8,139.6 			"/>
			<polygon class="st22" points="127.8,136 108,136.2 127.8,136.4 			"/>
		</g>
		<g>
			<path class="st20" d="M108.2,136.2c0,0,0.9,0.6,1.1,1.6c0,0.2,0.1,0.4,0.1,0.6c0,1.3,0,4.3,0,4.3l2.5-1.5l2.5,1.5v-4
				c0-0.8-0.2-1.5-0.6-2c-0.2-0.2-0.4-0.4-0.7-0.4H108.2z"/>
			<path class="st24" d="M108.2,136.2c0,0,0.9,0.6,1.1,1.6l5,0.1c0,0-0.2-1.4-1.2-1.7H108.2z"/>
		</g>
	</g>
	<g>
		<g>
			<g>
				<path class="st19" d="M59.7,114.3h55.5V93.7H59.5c-4.4,0-8,3.6-8,8v4.3C51.5,110.6,55.2,114.3,59.7,114.3z"/>
				<path class="st25" d="M52.8,101.7v4.4c0,1.9,1.1,3.5,2.6,4.4c0.8,0.4,1.6,0.7,2.6,0.7h60.2c0.7,0,1.3,0.6,1.3,1.3v0.5
					c0,0.7-0.6,1.3-1.3,1.3h-104c-3,0-5.6-1.5-7.2-3.8c-1-1.4-1.6-3.2-1.6-5.1V102c0-1.3,0.3-2.5,0.8-3.6c1.3-2.8,4.2-4.7,7.5-4.7
					h104.6c0.7,0,1.3,0.6,1.3,1.3v0.5c0,0.7-0.6,1.3-1.3,1.3H57.8c-1.4,0-2.8,0.6-3.7,1.6C53.3,99.2,52.8,100.4,52.8,101.7z"/>
			</g>
			<polygon class="st22" points="115.2,104 107.5,104.3 115.2,104.5 			"/>
			<polygon class="st22" points="115.2,99.2 96.8,99.6 115.2,99.8 			"/>
		</g>
		<g>
			<path class="st26" d="M97,99.5c0,0,1.2,0.7,1.6,1.7c0.1,0.2,0.1,0.4,0.1,0.6c0.1,1.4,0,4.7,0,4.7l3.6-1.6l3.6,1.6v-4.4
				c0-0.8-0.3-1.6-0.9-2.2c-0.3-0.3-0.6-0.4-1-0.4H97z"/>
			<path class="st27" d="M97,99.5c0,0,1.2,0.7,1.6,1.7l7.2,0.1c0,0-0.3-1.5-1.8-1.8H97z"/>
		</g>
	</g>
</g>
<g>
	<g>
		<path class="st28" d="M60.7,86.1c3.2,5.5,7.2,7.7,7.2,7.7h16.6C84.5,93.7,58.3,81.8,60.7,86.1z"/>
		<g>
			<path class="st29" d="M73.4,128.8c0.4,0.5,0.5,1.1,0.3,1.6c0,0,0,0,0,0c-0.4,1.1-1.7,2.3-3.2,3.5c-0.2,0.2-0.4,0.3-0.5,0.4
				c0,0-0.1,0.1-0.1,0.1c0,0-0.1,0.1-0.1,0.1c-1.4,1.3-0.9,1.6-3.4,4.3c-2.9,3-4.9,3.1-5.5,2.8c-0.5-0.2,0.5-1.8,1.6-3.6
				c0.1-0.1,0.1-0.2,0.2-0.3c0.1-0.2,0.3-0.5,0.4-0.7c1.3-2.2,0.9-3.2,0.6-6.4c-0.2-2.6-4.1-14.6-4.1-14.6l5.6-1
				c0,0,1.7,9.6,3.5,11.1c1,0.8,2.1,0.8,3,1.4c0.1,0,0.1,0.1,0.2,0.1C72.5,127.9,73,128.3,73.4,128.8z"/>
			<path class="st28" d="M73.4,128.8c0.4,0.5,0.5,1.1,0.3,1.6c0,0,0,0,0,0c-0.5,1.1-1.8,2.3-3.2,3.5c-0.2,0.2-0.4,0.3-0.5,0.4
				c0,0-0.1,0.1-0.1,0.1c0,0-0.1,0.1-0.1,0.1c-1.4,1.3-0.9,1.6-3.4,4.3c-2.9,3-4.9,3.1-5.5,2.8c-0.5-0.2,0.5-1.8,1.6-3.6
				c0.6-0.2,3.2-1.3,5.2-3.8c1.7-2.2,2.9-5.1,4.1-6.8c0.1,0,0.1,0.1,0.2,0.1C72.5,127.9,73,128.3,73.4,128.8z"/>
			<path class="st29" d="M28.6,125.3c-0.3,1.7-2.8,1.4-5.5,0.8c-2.7-0.7-2.1,0.1-6-0.3c-3.9-0.4-5.1-1.9-5.2-2.5
				c-0.1-0.5,1.8-0.7,3.9-0.9c0.3,0,0.5-0.1,0.8-0.1c2.3-0.3,4-1.8,6.2-3c2-1.2,5-5.9,5-5.9l5.3,0.4c0,0-2.8,4.3-3.9,6.1
				c-0.6,1.1-0.6,2.5-0.5,3.6C28.6,124.1,28.7,124.7,28.6,125.3z"/>
			<path class="st28" d="M23,126.1c-2.7-0.7-2.1,0.1-6-0.3c-3.9-0.4-5.1-1.9-5.2-2.5c-0.1-0.5,1.8-0.7,3.9-0.9l0,0
				c0,0,2.3,1.7,5.6,1.7c2.6,0.1,5.4-0.7,7.3-0.7c0,0.6,0.1,1.2,0,1.8C28.2,127.1,25.8,126.8,23,126.1z"/>
			<path class="st28" d="M49,91.2l5,13.4l6.5,17.5c0,0,1.8,0.2,3.5-0.3c1.6-0.5,3.3-1.6,3.3-1.6s-1.8-18.8-5.2-29.6
				c-0.9-2.8-1.8-5-2.9-6.3C54,78.1,49,91.2,49,91.2z"/>
			<path class="st23" d="M54.1,69.9c3.3-1.1,12.6,0.3,22,2.1l2-3.2l20.2-1.6c0,0,6.7,14.8,3,24.2c-0.5,1.4-1.6,2.3-3.4,2.3
				c0,0-0.3,0-0.3,0c0,0-12,0-16,0c-10.1,0-21.3-6.9-22.8-7.2c-2.4-0.5-3.3,4.3-5.7,9.3c-2.4,5-22.4,22.1-22.4,22.1s-3.1,0-4.3-0.4
				c-1.4-0.5-1.9-1.2-1.9-1.2S46.7,72.2,54.1,69.9z"/>
			<path class="st28" d="M78.1,40.9c7.2,4,21.8,12.2,21.9,12.1c0,0,5.4,2,8.4,0c5.1-3.4,7.8-12.5-1.5-20.3
				c-4.6-3.9-7.9-4.8-8.4-11.1C98.3,18.3,93.7,7.2,86,8.2c-0.6,0.1-4.6,0.3-7.2,1.6C72.2,13.3,67.3,39.3,78.1,40.9z"/>
			<path class="st29" d="M84.2,37.5c0,0,3.5,1.2,5.9,0.2c2.3-1,4-4.7,3.9-4.7c-1,0-2.1-0.9-3-6.8l-0.4,0.2L83.3,29
				c0,0,0.5,2.4,0.9,4.6C84.4,35.4,84.6,37.2,84.2,37.5z"/>
			<path class="st30" d="M83.3,29c0,0,0.5,2.4,0.9,4.6c4.2-0.8,5.9-5,6.5-7.2L83.3,29z"/>
			<path class="st29" d="M82.2,31.3c0,0,10-1.3,9.1-7.6c-0.9-6.2-0.3-10.6-6.7-10c-6.4,0.6-7.3,3.2-7.5,5.3
				C76.8,21.2,79.5,31.5,82.2,31.3z"/>
			<path class="st28" d="M77.4,15.6c0,0,6.4,5.5,10.8,6s6-1,6-1s-2.6-2.1-4.1-5.6c-0.5-1-1.4-1.7-2.5-1.8
				C84.4,13,78.5,12.9,77.4,15.6z"/>
			<path class="st28" d="M81.4,15.1c0,0-2.1,2.1-2.8,3.6c-0.7,1.5-0.8,5-0.3,6.5c0,0-3.3-6.5-1.5-9.7C78.8,12.2,81.4,15.1,81.4,15.1
				z"/>
			<path class="st6" d="M75.7,52.3c0.3,20.3,0.1,16.1,2.3,18c0.5,0.5,2,0.7,4,0.9c6.2,0.4,17.2-0.6,17.6-1.8c1.4-4,0.4-5.2,1.6-11.3
				c0.1-0.6,0.3-1.3,0.5-2.1c1-4.2,2-5.6-1.6-12.3c-3.2-6.1-6.6-11-6.9-10.9c-8.5,5-9.2,0.8-9.2,0.8S75.6,42.4,75.7,52.3z"/>
			<path class="st23" d="M54,104.6l6.5,17.5c0,0,1.8,0.2,3.5-0.3c1.6-0.5,3.3-1.6,3.3-1.6s-1.8-18.8-5.2-29.6L54,104.6z"/>
			<path class="st3" d="M84.1,33.6c0,0-8.7,1.5-9.7,5.2c-1,3.8-7.1,25.8-7.1,25.8s4.4,0.8,6.5-1.3c2-2,7.1-19,7.1-19L84.1,33.6z"/>
			<path class="st6" d="M82.1,71.1c6.2,0.4,17.2-0.6,17.6-1.8c1.4-4,0.4-5.2,1.6-11.3l-3-8.5c0,0,0.5,9.4-2.3,11.9
				c-2.8,2.5-11.4,4.8-12.7,6.8C82.6,69.3,82.2,70.3,82.1,71.1z"/>
			<path class="st29" d="M89.2,67.2c0,0-6.1-1.4-7.1-0.8c-1,0.5-3.4,2.5-3.7,3.2c-0.3,0.7,2.2-0.5,3-0.7c0.5-0.1,1.9,0.3,2.6,0.6
				c2.9,1,4.7,0.5,4.7,0.5L89.2,67.2z"/>
			<path class="st3" d="M93.3,32.8c0,0,8.2,0.5,11.1,4.5c4,5.6,12,29.5,7.4,32.7c-5.1,3.6-23.4,0.9-23.4,0.9s-0.6-2.8,0.2-4.2
				c0.8-1.4,14.6-3.6,15.2-4.2C104.5,61.8,96,50,96,48.1C96,46.2,93.3,32.8,93.3,32.8z"/>
			<path class="st29" d="M81.8,68.1c0,0-1.3,1.7-1.7,1.9c-0.4,0.2-0.7,0.1-0.7,0.1l0.9-1.6L81.8,68.1z"/>
			<path class="st29" d="M82.1,66.4l-3.7,1.8c0,0,0.2,0.3,0.6,0.2c0.5,0,1.6-0.4,1.6-0.4L82.1,66.4z"/>
		</g>
		<g>
			<g>
				<polygon class="st12" points="80.1,72.5 50.5,72.5 41.6,50.3 71.1,50.3 				"/>
				<polygon class="st27" points="50.1,71.6 89.2,71.6 89.2,72.5 50.5,72.5 				"/>
			</g>
			<path class="st14" d="M57.9,61.4c-0.2-0.8,0.2-1.4,1-1.4c0.8,0,1.6,0.6,1.8,1.4c0.2,0.8-0.2,1.4-1,1.4
				C59,62.8,58.2,62.2,57.9,61.4z"/>
		</g>
	</g>
</g>
</svg>
