<?xml version="1.0" encoding="utf-8"?>
<!-- Generator: Adobe Illustrator 24.2.1, SVG Export Plug-In . SVG Version: 6.00 Build 0)  -->
<svg version="1.1" id="Layer_1" xmlns="http://www.w3.org/2000/svg" xmlns:xlink="http://www.w3.org/1999/xlink" x="0px" y="0px"
	 viewBox="0 0 127 177" style="enable-background:new 0 0 127 177;" xml:space="preserve">
<style type="text/css">
	.st0{opacity:0.2;fill:#1B73F0;}
	.st1{fill:#1B73F0;}
	.st2{opacity:0.34;fill:#0A3E89;}
	.st3{fill:#001A49;}
	.st4{fill:#FF8BB7;}
	.st5{fill:#F268A0;}
	.st6{fill:#C9DFFF;}
	.st7{fill:#B6D7FF;}
	.st8{fill:#606060;}
	.st9{fill:#FFFFFF;}
	.st10{fill:#6478FF;}
</style>
<g>
	<path class="st0" d="M109.6,309.5c0,7.2-23.4,13.1-52.3,13.1s-52.3-5.9-52.3-13.1c0-7.2,23.4-13.1,52.3-13.1
		S109.6,302.2,109.6,309.5z"/>
	<g>
		<path class="st1" d="M88.6,209.1c-1.9,20.9,2.2,60.3-1.9,82.7c0,0-5.1,2.4-12.6,1.1c-7.5-1.3-10.4-66.8-11.3-77.5
			c-1-10.8-4.8-33.4-6-38.7c-0.9-4,0.4-11.6-0.7-15.1c-0.6-1.8-3-2.2-4.1-0.6c-1.8,2.7-0.5,9.7-0.8,26.9
			c-0.4,24.7-4.4,37.4-7.4,49.8c-3,12.4-9.7,42.2-12.3,49.1c0,0-7.8,4.8-15.5,0.3c0,0,3.2-40.8,5-56.2c1.8-15.4,4.4-29.9,4.4-45.7
			c0-5.1-0.4-10.9-0.9-16.7c-0.8-9.9-1.9-20-1.9-27.2c0-1.7,0.1-3.2,0.2-4.5c1-10.3,58.8,3.7,58.8,3.7
			C81.9,144.4,90.5,188.3,88.6,209.1z"/>
		<path class="st2" d="M71.6,162c-10.9-6.1-30.6-16.5-41.2-13c-2.3,0.7-4.7,1-7.1,1.1c-0.4-5.3-0.5-10-0.2-13.4
			c1-10.3,58.9,4.4,58.9,4.4c0.1,1.3,2.5,16.3,3.5,22.4C82.7,164.7,79.1,166.2,71.6,162z"/>
		<path class="st2" d="M75.6,208.4c1.5-10.6,8.5-12.7,13.2-13.1c0.2,4.9,0.2,9.6-0.2,13.9c-0.6,6.3-0.6,13.7-0.5,21.7
			C83.2,227.8,74,220.1,75.6,208.4z"/>
		<path class="st2" d="M33.5,212.6c1.1-12.4,12.2-16.2,17.5-17.5c-0.8,16.1-3.2,26.6-5.5,35.8C42.1,229.9,32.3,226.1,33.5,212.6z"/>
		<path class="st3" d="M89.5,273.2c0,0,1.6-2.9-2.2-1.2c-3.8,1.7-18.6,2.3-19.3,3.1c-0.7,0.8-2,0.9-0.8,2.7c1.2,1.7,1.6,3.3,2.3,7.2
			c0.7,3.9-1.7,9.4-0.9,12.7c0.8,3.3-2.9,8,0,9.7c2.9,1.7,6.4,2.2,8.8,3.5c2.4,1.3,12.4,3.2,19.7,3c7.3-0.2,10.8-2,6.6-5.7
			c-4.1-3.7-5.8-5.9-9.8-7.3c-3.9-1.5-4.7-5.6-4.7-9.3c0-3.8-0.6-2.9,0-6.8C89.8,280.8,89.5,273.2,89.5,273.2z"/>
		<path class="st3" d="M16,267.7c0,0-1.3-2.6,3.7-0.7c5,1.8,18.5,0.8,17.8,2.9c-0.6,2.1-0.4,6.7-1.7,8.4c-1.3,1.7,0.3,3-0.8,6.3
			c-1,3.3-1.9,8.6-0.3,11.3c1.5,2.7,6.5,11.5,7.4,16c0.9,4.5-4.9,7.4-12.6,1.2c-7.7-6.1-7.6-7.9-10.2-10.6c-2.6-2.7-6.5-3.8-6.4-8.9
			c0.1-5.1,0-7.6,0.8-10.6c0.8-3.1,2.4-5.5,1.8-8.3C14.9,271.7,16,267.7,16,267.7z"/>
		<path class="st2" d="M38.7,152.9c-2.2,3.7-4.9,7.2-7.8,10.4c-1.8,2-3.8,3.9-6.2,5c-0.8-9.9-1.9-20-1.9-27.2c0,0,0,0,0,0
			c0.4-0.4,0.9-0.4,1.5-0.5c3.5-0.2,7,0.1,10.4,0.9c2.1,0.5,4.4,1.4,5.4,3.3C41.4,147.3,40.1,150.4,38.7,152.9z"/>
	</g>
	<path class="st4" d="M91.6,109.1c-1.4,0.9-3.2,1.2-4.9,1.1c-0.4,0-0.9-0.1-1.3-0.2c-2.1-0.4-4.1-1.3-6-2.1c-2.4-1-4.9-2.1-6.3-4.3
		c-0.7-1.1-1.1-2.5-1.4-3.8c-0.9-4-1.5-8.1-1.7-12.3c-0.1-1.9-0.2-3.9,0.7-5.6c1.9-3.7,7.2-3.9,9.9-1c2.5,2.6,2,8.5,2.4,11.8
		c0.1,0.4,0.1,0.9,0.2,1.3c0.1,0.3,0.2,0.7,0.4,0.9c0.3,0.5,0.9,0.8,1.4,1.2c1.7,1.1,3.3,2.2,5,3.3c1.6,1.1,3.3,2.3,3.8,4.1
		C94.5,105.7,93.4,108,91.6,109.1z"/>
	<path class="st5" d="M91.6,109.1c-1.4,0.9-3.2,1.2-4.9,1.1c-0.8-3.9-2.1-7.6-3.1-11.4c-0.3-1.3-0.6-2.6-0.4-4
		c0-0.3,0.1-0.5,0.2-0.8c0.1,0.3,0.2,0.7,0.4,0.9c0.3,0.5,0.9,0.8,1.4,1.2c1.7,1.1,3.3,2.2,5,3.3c1.6,1.1,3.3,2.3,3.8,4.1
		C94.5,105.7,93.4,108,91.6,109.1z"/>
	<path class="st6" d="M75.6,79c0.5,15.9,7.5,64.3,7.5,64.3c-19.8,16.7-61,7.1-61,7.1l-0.3-51.8l7.3-49.5c5.5-2.9,32.7-0.4,32.7-0.4
		s11.4-0.3,15.3,4.5c5.6,6.9,6.4,31.5,6.4,31.5s-3.7,3.7-8.4,2.1"/>
	<path class="st7" d="M78.5,71.6l0.3,7.3c0,0.9-0.2,1.7-0.7,2.5l-0.4,0.5c-0.4,0.5-0.5,1.2-0.5,1.8l0,0c0,1.1-0.3,2.2-1,3.1L76,87.2
		"/>
	<path class="st4" d="M17.4,111.6c0.8,1.9,1.7,3.8,3.5,4.9c1.6,1,3.7,1.1,5.6,0.6c1.8-0.6,3.5-1.7,4.9-2.9c8.1-7,11.2-18,17-27
		c2.3-3.6,5.1-6.9,7.6-10.3c1.4-1.9,2.8-4,3.1-6.4s-0.8-5.1-3.1-5.8c-0.9-0.3-2.1-0.5-2.3-1.4c-0.1-0.3,0.1-0.7,0.2-1
		c0.6-1,1.6-1.5,2.4-2.3c0.8-0.8,1.4-2,0.8-3c-0.5-0.7-1.5-0.9-2.3-0.6c-0.8,0.2-1.5,0.8-2.1,1.4c-3.7,3.4-7,7.6-7.6,12.5
		c-0.2,1.6-0.1,3.3-0.7,4.9c-0.5,1.3-1.4,2.4-2.3,3.5c-4.4,5.3-8.9,10.6-14.1,15.1c0.7-3.7,0.9-7.4,0.6-11.1
		c-0.2-2.2-0.6-4.6-2.1-6.2c-2.2-2.4-6.1-2.5-8.8-0.7c-5.3,3.4-5.4,10.7-5.2,16.3C12.9,98.7,14.9,105.5,17.4,111.6z"/>
	<path class="st6" d="M39.3,47.8c0,0-23.8-0.9-25.6,17c-1,10.6-4,26.8-2.8,29.6c0,0,12.8-2,20.6-4.4c0,0,0.2-9.5-1.4-13.3"/>
	<path class="st7" d="M24.6,60c2.8,4,5.6,8.3,5.7,13.2c0,1-0.1,1.9,0,2.9c0.2,1.5,0.9,2.9,1.3,4.4c0.8,2.6,0.6,5.4,0.4,8.1
		c0,0.4-0.1,0.9-0.3,1.2c-0.3,0.4-0.8,0.6-1.3,0.8"/>
	<g>
		<path class="st4" d="M74.7,19.4c0.1,0.8,0,14.6-3.2,19.3c-3.2,4.8-5.9,6.1-11.7,4.6l-0.5,8.1c0,0-3.4,6.4-11.5,3
			c-5.2-2.2-6.3-6.8-6.3-6.8l10-31.8L74.7,19.4z"/>
		<path class="st3" d="M43.8,36.9c0.1,1,5.5,0.2,8.3-1.9s3.4-1.8,3.3-3.3c-0.1-1.5-1.5-0.7-2.3-3.2c-0.9-2.5-0.6-6.2,2.7-5.7
			c3.2,0.5,3,3,4.5,1.9c1.5-1.1,0.5-4.8,1.9-5.2c1.4-0.5,2.3-2.9,7.8,0.2c5.5,3.2,10,6.6,11,2.4c1-4.2-3.5-4.4-0.3-5.8
			c3.2-1.4,0.2-5.2-5.7-5.1c-5.9,0.1-12.3-9.3-22.4-4.1C42.4,12.3,41.2,16.7,43.8,36.9z"/>
		<path class="st5" d="M59.8,43.3c-1.2-0.2-3.9-0.6-6.7-2.8c-2.8-2.2,0.7,3.5,2.8,4.6c2.1,1.1,3.6,2.5,3.6,2.5L59.8,43.3z"/>
		<path class="st4" d="M60.5,26c0,0-1.9-4.8-6.4-4.1c-4.5,0.8-3.1,8.5,3.2,12S60.5,26,60.5,26z"/>
	</g>
	<g>
		<path class="st7" d="M42.5,43.4c-1.1,0.2-3.1,2.7-3.5,4.8l-0.5,2.8c-0.1,0.8,0.1,1.6,0.7,2.1l0.5,0.5c0.1,0.1,0.3,0.3,0.4,0.5
			l4.7,3.7l2.7-0.9c0.3-0.1,0.7-0.2,1-0.2l3.3-0.1c0.2,0,0.2-0.3,0-0.4c-8.4-2.2-9.9-8.1-9.9-8.1S42.9,43.4,42.5,43.4z"/>
		<path class="st7" d="M54.1,56.4c-0.1,0.2,0.1,0.4,0.3,0.3c2.3-1.1,4.3-2.7,6-4.5c0.6-0.6,1.1-1.3,1.2-2.2c0-0.3-0.1-0.6-0.1-0.9
			c-0.4-1.5-0.5-2.8-1.7-3.6c-0.2,1.3,0.2,4.8-2.6,7C55.8,53.5,55.1,55.1,54.1,56.4z"/>
	</g>
	<g>
		<polygon class="st8" points="122.1,91.1 118.9,72.5 83.5,87.1 83.8,94.9 		"/>
		<polygon class="st9" points="121,90.4 117.6,72.2 84.2,85.9 85.1,94.3 		"/>
		<path class="st10" d="M115.8,94.2l6.3-3.1c0,0-12-8.1-12.8-7.6C108.5,83.9,74,99.3,74,99.3l14.2,7.7L115.8,94.2z"/>
	</g>
	<path class="st4" d="M100.8,101.7c0.6,0,1.2,0.1,1.7,0.4s0.9,0.9,0.7,1.5c-0.2,0.8-1.2,0.9-1.9,1.3c-0.8,0.5-1.1,1.5-1.5,2.3
		c-0.9,2.1-2.1,4.3-4.2,5.2c-1.1,0.5-2.2,0.6-3.4,0.5c-1.8-0.1-3.8-0.6-4.7-2.1c-0.2-0.4-0.4-1-0.2-1.5c0.3-0.6,1-0.8,1.6-0.8
		s1.3,0.1,1.9,0.1c0.2,0,0.3-0.1,0.4-0.2c0.3-0.3,0.2-0.7,0.2-1.1c0.2-1,1.7-1.2,2.1-2.1c0.2-0.6,0-1.2,0-1.8
		C93.6,100.2,98.9,101.6,100.8,101.7z"/>
</g>
</svg>
