<?xml version="1.0" encoding="utf-8"?>
<!-- Generator: Adobe Illustrator 24.2.1, SVG Export Plug-In . SVG Version: 6.00 Build 0)  -->
<svg version="1.1" id="Layer_1" xmlns="http://www.w3.org/2000/svg" xmlns:xlink="http://www.w3.org/1999/xlink" x="0px" y="0px"
	 viewBox="0 0 152 334" style="enable-background:new 0 0 152 334;" xml:space="preserve">
<style type="text/css">
	.st0{opacity:0.2;fill:#1B73F0;}
	.st1{fill:#1355A5;}
	.st2{fill:#001A49;}
	.st3{fill:#1B73F0;}
	.st4{fill:#FF5D00;}
	.st5{fill:#FCB4D2;}
	.st6{opacity:0.31;fill:#EA5E89;}
	.st7{fill:#6478FF;}
	.st8{font-family:'Versa-Versa';}
	.st9{font-size:37.9602px;}
	.st10{fill:#7FB5F7;}
	.st11{fill:#4B64DD;}
	.st12{fill:#4964E8;}
	.st13{fill:#FF8BB7;}
	.st14{fill:#EA5003;}
	.st15{fill:#011026;}
	.st16{fill:#FFFFFF;}
	.st17{fill:#FFB000;}
	.st18{fill:#FF7300;}
	.st19{fill:#FF9100;}
	.st20{fill:#042956;}
	.st21{fill:#F2649E;}
</style>
<g>
	<path class="st0" d="M168.9,366.8c0,6.1-35.5,11-79.2,11c-43.8,0-79.2-4.9-79.2-11c0-6.1,35.5-11,79.2-11
		C133.4,355.8,168.9,360.7,168.9,366.8z"/>
	<g>
		<g>
			<path class="st1" d="M93.1,337.9c0,0,12.8-4.4,22.1-2.1C115.1,335.8,108.3,346.7,93.1,337.9z"/>
			<path class="st1" d="M122.4,338c0,0,12.8-4.4,22.1-2.1C144.5,335.9,137.6,346.9,122.4,338z"/>
			<path class="st2" d="M111.8,343.9c1.7,1.2,5.5,7.1,1.1,15.7l-4.5,1.2l-1.1-2.7c0,0-2.1,2.2-8.2,2.7c-6.1,0.6-22.4,2.2-21.4,0
				c1-2.2,6.1-5.9,10.8-7.8s9.9-5.2,10.9-8.1C100.6,341.9,111.8,343.9,111.8,343.9z"/>
			<path class="st2" d="M140,341.9c0.5,3.6,4.7,5.6,4.5,12.1c-0.3,6.5-2.2,7.5-2.2,7.5h-4.8v-2.1c0,0-4.6,1.6-8.9,6
				c-4.4,4.4-21.5,5.7-19.9,2.7c1.6-2.9,4.4-6.6,10.2-10.8c5.8-4.2,7-12.6,7-12.6L140,341.9z"/>
			<g>
				<path class="st3" d="M138.8,157.8c0,0,5.7,22,4.1,48.5c-1.6,26.5,1.8,109.2,0.3,123.5c-1.5,14.3-1.5,14.3-1.5,14.3
					s-6.9,2.7-16.7,1.2c0,0-6.1-57-7.1-85.9c-1-28.9-4.2-64.4-4.2-64.4l-2.7-0.4c0,0-8.5,45.3-8.4,55.1c0.1,9.8,12.4,77,11.1,90.1
					v5.5c0,0-9.3,2.3-17.5,0.6c0,0-11.6-58.7-15.2-83.2c-3.6-24.4,5.9-100.7,5.9-100.7L138.8,157.8z"/>
				<g>
					<path class="st4" d="M87.1,41.4c0.5,1.4-0.7,1.9,2.5,4.7c3.2,2.8,3.4,2.8,8.4,4.6c5,1.8,13.9,0.3,16.3-3.4
						c2.4-3.7,3.5-7.8,3.5-11.4S87.1,41.4,87.1,41.4z"/>
					<path class="st5" d="M112.2,45.8l7.9,16.8c0,0-13.5,7.6-22.4,5l0.3-22.1L112.2,45.8z"/>
					<path class="st6" d="M112.2,45.8l3.8,8.1c-1.5,1.2-8.4,0.7-10.5-0.2c-2.7-1.2-3.3-2.2-7.6-1.5l0.1-6.8L112.2,45.8z"/>
					<g>
						<path class="st5" d="M105.2,50.4L105.2,50.4c6.4-1.3,10.5-7.6,9.2-14L112,24.5c-1.3-6.4-7.6-10.5-14-9.2h0
							c-6.4,1.3-10.5,7.6-9.2,14l2.5,11.9C92.5,47.6,98.8,51.8,105.2,50.4z"/>
						<path class="st5" d="M111,30.9c0,0,2.9-4.6,7.3-3c4.5,1.6,1.6,9.2-5.5,11.7C105.7,42,111,30.9,111,30.9z"/>
						<path class="st5" d="M91.7,34.9c0,0-4.5-3.1-7.9,0.2c-3.5,3.3,2.2,9.1,9.7,8.5C101,43,91.7,34.9,91.7,34.9z"/>
					</g>
					<path class="st4" d="M102.8,21.5c-1.6-0.2-1.3,6.2-7.2,7c-5.8,0.8-6,4.7-5.9,5.5c0.1,0.8-2.1-1.4-5.9,1.1c0,0-3.6-2.1-3.6-5.3
						c0-3.1,3.4-6.3,3.3-10.5c-0.1-4.2,3.8-9.1,11.9-9.4c8-0.3,9.9,1.3,9.9,1.3s5-3.6,10.8,5c3.4,5.1,2.3,11.6,2.3,11.6
						s-3.6-1.4-6.4,1.8c0,0-1.8-4.4-3.7-4.8C106.5,24.6,106.7,22.1,102.8,21.5z"/>
				</g>
				<path class="st2" d="M117.8,56.8c0,0-5.9,8.8-14.6,8.7c-3-0.1-5.4-2.6-5.2-5.6l0,0c0,0-10.1-0.1-17.7,4.9C72.6,69.8,57,91,57,91
					l19.5,15.7l12-13.6c0,0-5.4,59.5-4.6,72.7c0.1,1.6,6.5,1.2,8.1,1.3c13.6,1.1,28.5,5,49-5.1c0,0,5.3-1.5,2.2-6.8
					c-3.1-5.3-3.9-27.1-3.9-32.8s-3.7-29.1-4.6-32.2c-0.8-2.7,7.2,6.7,9.2,12.5c0.5,1.3,2,1.8,3.1,1.1c3.7-2.4,10.7-7.2,14.3-16.1
					c0,0-15.5-20.5-23.2-25.6C130.2,57.1,117.8,56.8,117.8,56.8z"/>
				<path class="st7" d="M103.7,70.8c7.7,1,15.8-8.7,19.3-13.6c-3.1-0.4-5.2-0.5-5.2-0.5s-5.9,8.8-14.6,8.7c-3-0.1-5.4-2.6-5.2-5.6
					c0,0-1.7,0-4.2,0.3C94.4,63.8,96.6,69.9,103.7,70.8z"/>
				<path class="st7" d="M159.3,85.3c-0.8-1-1.8-2.3-3-3.7c-4.4,5.8-13.1,12.3-16.5,14.2c0.7,1,1.4,2.1,2.1,3.2
					C147.6,97,155.3,89.5,159.3,85.3z"/>
				<path class="st7" d="M154.4,79.3c-0.8-0.9-1.5-1.9-2.4-2.8c-4.1,5.3-12.1,12.4-15.5,15.1c0.6,0.7,1.3,1.5,2,2.5
					C144,90.9,150.9,83.5,154.4,79.3z"/>
			</g>
			<text transform="matrix(0.9995 -3.118012e-02 3.118012e-02 0.9995 100.0714 110.747)" class="st7 st8 st9">a</text>
			<path class="st10" d="M122.4,338c1.8,0,15.1,1.3,22.1-2.1l1.2,10.4c0,0-14.4,3-23.2,0.9V338z"/>
			<path class="st10" d="M93.1,337.9c1.8,0,15.1,1.3,22.1-2.1l1.2,10.4c0,0-14.4,3-23.2,0.9V337.9z"/>
			<path class="st1" d="M142.8,185.6c0,0-1.2-15.8-2.6-21.1h0c-0.1-0.7-0.2-1.3-0.4-1.9c-20,9.5-34.6,5.7-47.9,4.6
				c-1-0.1-3.7,0-5.8-0.2c-0.1,0.6-0.2,1.3-0.2,2c0,0,0,0,0,0l-1.7,15.2c6.8-1.5,9.3-10.3,10.1-14.3c3.9,0.5,8.6,1.1,13.2,1.7
				c0.1,0,0.2,8.5,1.1,14.2l6.2,0.7c0,0-0.9-10.1-0.6-14c0.8,0.1,1.6,0.3,2.4,0.4c2.2,0.4,4.5,0.3,6.8-0.1
				C125.5,176.5,132.7,185.6,142.8,185.6z"/>
			<path class="st5" d="M160.2,90.3c0,0,13.6,29.2,15.7,41.1c2.1,11.9-36,53.9-36,53.9s-5.4,0-12.9-7.6c0,0,26.2-33,28.6-42.3
				c2.4-9.3-8.8-31.5-8.8-31.5S155.2,99.1,160.2,90.3z"/>
			<path class="st6" d="M158.6,104.1c0.6-6.7,5.4-3.7,5.9-4.1c-2.5-5.7-4.4-10-4.4-10c-5,8.8-13.3,13.8-13.3,13.8s3.1,6.2,5.7,13.4
				c0,0,0,0,0,0C155.5,117.1,158.1,110.8,158.6,104.1z"/>
		</g>
		<g>
			<path class="st11" d="M34.7,83.3c0.5,0,16.2-2.8,24.8,0c8.6,2.8-9.2,7.8-9.9,7.8c-0.7,0-12-3.6-12.4-4.2
				C36.8,86.2,34.4,83.2,34.7,83.3z"/>
			<path class="st12" d="M71,363.2c-3.7,1.7-8.2,1.1-10.7,0.5c-1.1-0.2-2.1-0.8-2.8-1.6c-1.6-1.8-4.4-2.6-6.3-2.9c0,0,0,0,0,0
				c0,0.1-0.1,0.2-0.1,0.3c-1.3,3.2-0.7,4.6-0.4,6.8c0.3,2.2,8.9-0.3,13.5,1.2c4.6,1.5,4.9,2.2,12.8,1.6
				C83.9,368.5,77,365.8,71,363.2z"/>
			<path class="st13" d="M57.5,362.2c0.6,0.7,1.3,1.2,2.2,1.4c2.4,0.6,7.3,1.4,11.3-0.4c-0.9-0.4-1.7-0.7-2.5-1.1l0,0
				c-7.4-1.7-6.2-7.3-5.4-11.1c-2.4-2.4-8.9-1.4-10.6-1.1c0,1.2-0.5,4.4-0.6,5.7c-0.1,1.2-0.3,2.5-0.7,3.7h0
				C53.1,359.6,55.9,360.4,57.5,362.2z"/>
			<path class="st7" d="M52.2,364.4c-3.7,1.7-8.2,1.1-10.7,0.5c-1.1-0.2-2.1-0.8-2.8-1.6c-1.6-1.8-4.4-2.6-6.3-2.9c0,0,0,0,0,0
				c0,0.1-0.1,0.2-0.1,0.3c-1.3,3.2-0.7,4.6-0.4,6.8c0.3,2.2,8.9-0.3,13.5,1.2c4.6,1.5,4.9,2.2,12.8,1.6
				C65.1,369.7,58.2,367,52.2,364.4z"/>
			<path class="st13" d="M38.7,363.4c0.6,0.7,1.3,1.2,2.2,1.4c2.4,0.6,7.3,1.4,11.3-0.4c-0.9-0.4-1.7-0.7-2.5-1.1l0,0
				c-7.4-1.7-6-14.3-5.1-18.1c-2.4-2.4-9.2,5.5-10.9,5.8c0,1.2-0.5,4.4-0.6,5.7c-0.1,1.2-0.3,2.5-0.7,3.7c0,0,0,0,0,0
				C34.3,360.8,37.1,361.6,38.7,363.4z"/>
			<path class="st4" d="M23.9,172.3c0,0-10.8,5.8-3.5,54.7c7.3,48.9,1.6,60.7,4.7,79.8c3.1,19.1,7,43.9,7,43.9s6,3.9,14.4,0
				c0,0,3.1-45.2,1.6-61.5c-1.6-16.2,1.3-77.2,1.3-77.2s3.7-0.5,4.5-0.5c0.8,0,0,48.4,0,57.3c0,8.9-4.4,65.6-3.1,81.1
				c0,0,6.4,3.4,14.3,0.3c0,0,8.7-56.8,10-70.4c1.3-13.6,6-72.4,3-91.3c-3-18.8-6.7-20.7-6.7-20.7L23.9,172.3z"/>
			<path class="st14" d="M32.3,280.9c0.8-22.4,0.5-32.2-0.9-48.9c-1.4-16.7-3.2-41.9-0.6-51.4c2.6-9.5-3.9,1.1-3.9,1.1
				s-4.6,8.7-1.8,32.3c2.8,23.6,5.1,52.8,3.8,63.9c-1.3,11.1,4.8,73.2,4.8,73.2l0.5,0.6c0.8,0.3,1.8,0.5,2.9,0.7
				C35.9,341.1,31.6,300.2,32.3,280.9z"/>
			<path class="st14" d="M61.5,233.8c2.8-10.8,6-27.9,0-24.9c-6,3-7.7,2.7-7.7,2.7c0.8,0,0,48.4,0,57.3c0,4.7-1.3,23-2.2,41.4
				l-0.9,39.7c0,0,7.7-61.3,8.6-75.1S58.8,244.6,61.5,233.8z"/>
			<path class="st14" d="M23.1,181.6c3.2,1.9,19.9,10.3,34.7,7.7c14.6-2.6,19.1-6.1,19.3-6.2c0,0,0,0,0,0l-5.7-15.3l-39.4,9.4
				L23.1,181.6z"/>
			<path class="st13" d="M97,146.7c0,0,7.5-5.8,8.7-9.7c1.2-3.9-4.2-5.4-4.2-5.4l-5.9,6.9C95.7,138.5,94.5,145.3,97,146.7z"/>
			<path class="st2" d="M42.4,94.1c0,0,6.2,4.3,18.7-0.2c12.5-4.5,4.9,63.3,8.1,67c3.2,3.7,11.2,22.8,7.7,22.3
				c-3.4-0.5-15.4,2.1-22.7,3.4c-7.3,1.3-27.5-6.5-31.3-4.9C21.5,182.3,42.4,94.1,42.4,94.1z"/>
			<path class="st15" d="M39.8,150.8c7.8,0.2,16.6,8.8,26.8,3.8c0.7-0.3,1.3-0.9,1.8-1.7c-0.1-9.6,0.7-26,0-39.1
				c-1.5-9.5-3.1-16.9-3.1-16.9s-8.4,7.1-17,6.4c-2.3-0.2-5.2-0.1-8.2,0.2C35.1,125.2,22.8,178,23,181.5l0.1,0.2c0,0,0,0,0,0
				c1.3-0.6,4.6,0,8.7,1C30.8,180.6,32,150.6,39.8,150.8z"/>
			<path class="st13" d="M35.2,85l9.4-2.7l11.7,0.6l9.5,4.6c0,0-4.1,15.6-26.3,6.7L35.2,85z"/>
			<path class="st7" d="M44.6,94.4c0,0-5-14.2-12.3-10.6c-7.3,3.6-12.1,3.1-16.7,6.4c-4.7,3.3-12.4,38.5-12.4,45.3
				c0,6.8,5.2,14,9.5,13.4c4.3-0.6,11.6-3.7,11.6-3.7s-9.3,37.3-8,45.3c0,0,0,3.2,5.5,7c0,0,5.1-14.4,7.4-24.1
				C31.4,163.8,44.6,94.4,44.6,94.4"/>
			<path class="st11" d="M19,127.4c0,0-10.9,2.3-12.6,11.8c-1.7,9.5,6.4,8.4,7.6,8.2c9.1-1.6,9.5-4.1,11.1-10.7
				C26.7,130.1,19,127.4,19,127.4z"/>
			<path class="st11" d="M34.1,102.2c2.6,10.2,9.2-13.1-1.8-18.3c-7.3,3.6-12.1,3.1-16.7,6.4C15.6,90.3,31.5,92,34.1,102.2z"/>
			<path class="st5" d="M17.2,89.6c0,0-3.1-5.1,2.1-7.7s8.2-2.6,10.5-1.7c2.3,0.9,3.5,5.8,2.4,7.7c-1.2,1.9-3.7,6-7.1,5.7
				C21.8,93.2,18.1,92.4,17.2,89.6z"/>
			<path class="st5" d="M30.4,81.7c0,0,1.6-1.7,2.9-0.9c1.3,0.9,1.4,1.6,1,2.6c-0.4,1-1.2,2.2-2.3,1.9
				C30.8,84.9,30.4,81.7,30.4,81.7z"/>
			<path class="st11" d="M28.8,136.8c-2,5.8-4.6,8.5-4.6,8.5s-2.6,10.5-4.9,21.6c2.9-1.2,7.2-3.7,9.4-7.5c1.7-3,3.2-4.3,4.2-4.8
				c1-5.3,2.2-11.2,3.4-17.2C33.1,135.3,29.8,134,28.8,136.8z"/>
			<path class="st7" d="M59.5,83.3c0,0,17.4,4.9,20.8,15.5c3.3,10.6,20.7,45.5,15.5,50.7c-5.2,5.2-17,5.5-18.9,0.2
				c0,0,5.8,30.7,6,37c0.2,6.3-7.6,10-7.6,10s-2.7-12.9-6.3-18.3c-3.6-5.4-2.9-22-1-41.7c1.8-17.9-9.4-34.9-8.7-40.7
				C60.1,90.1,59.5,83.3,59.5,83.3z"/>
			<path class="st11" d="M82.4,110.5c0.1-0.7,0-3.3-0.1-6.3c-0.9-2.2-1.6-4.1-2.1-5.5c-0.6-1.8-1.6-3.4-2.8-4.9
				c-5.6,1.7-13.9,4.8-16.7,8.6c0.7,1.9,1.5,4.1,2.4,6.5C69.4,111.9,82.2,112,82.4,110.5z"/>
			<path class="st11" d="M67.3,144.1c-0.3,3.4-0.5,6.7-0.7,9.7c1.3,1.3,3.2,3.5,5.4,7.2c2.1,3.5,5.4,5.5,8.1,6.7
				c-1.6-9.2-3.3-18.2-3.3-18.2c0.1,0.2,0.1,0.4,0.2,0.5c-1-2.8-1.4-5.1-1.4-5.1L67.3,144.1z"/>
			<path class="st11" d="M79,144.7c2.5-0.2,12.1,2.1,17.4,3.6c0.9-2.6-0.2-7.7-2.2-13.9C89.3,137.3,76.3,145,79,144.7z"/>
			<path class="st16" d="M25.7,88.7l6.3-0.2c0,0,27.7,15,28.4,15c0.7,0,39.5-12.9,39.5-12.9l4.5,0.4l-45,26.9L25.7,88.7z"/>
			<path class="st17" d="M27,113l-1.3-24.3l34.1,16.5l44.6-14.1c0,0-0.8,46.2-1.2,46.7c-0.4,0.5-41.6,14.6-41.6,14.6L27.3,137
				L27,113z"/>
			<path class="st18" d="M91.2,128.5c0,0-0.5,4.5,4.3,6.7c4.7,2.2,4,4,4,4l3.8-1.5v-11L91.2,128.5z"/>
			<polygon class="st19" points="25.7,88.7 27,113 27.3,137 61.5,152.4 59.8,105.2 			"/>
			<path class="st18" d="M43.6,97.3c-0.5,0.6-12.7-3.6-9.5,4.8c3.2,8.5,2.7,9.7,1.6,12.5c-1.1,2.9-8.9,3.1-8.9,3.1l-1.2-29.2
				L43.6,97.3z"/>
			<path class="st18" d="M42.1,122.6c0,0,2.6,7.1-5.7,9c-8.4,1.9-5.7,6.9-5.7,6.9l-3.3-1.5v-9.6L42.1,122.6z"/>
			<g>
				<path class="st13" d="M18.3,144.5c-1,0.2-9.6,3.8-10.3-3.3c-0.7-7,3.9-9,5.5-11.5c1.6-2.5,5.4-7,7.2-9.5
					c1.7-2.6,2.6-3.6,8.3-4.5c5.6-0.9,7-2.6,8.5-1.3c1.4,1.3,5.3,4.6,4.8,10.9c-0.5,6.3-9.5,4.3-12.4,5.2
					C26.9,131.4,23,143.4,18.3,144.5z"/>
				<path class="st13" d="M25.1,117.9c0,0,0.6-3.6,0.8-6.5c0.1-2.9,3,2.7,2.6,6C28.2,120.6,25.1,117.9,25.1,117.9z"/>
			</g>
			<path class="st13" d="M108.6,124.4c0.1-0.8,0.4-3.3-2.7-4.9c-3.1-1.5-9.7-2-12-1.5c-2.3,0.6-1.6,1.7-2.2,4.7
				c-0.6,3-1.6,7.3,1.8,9.6c3.4,2.3,7.9-0.4,9.6,5.4C104.9,143.6,107.8,130.5,108.6,124.4z"/>
			<path class="st7" d="M38.5,364.9c0.2-0.1,5.4-4.3,7.5-4.4l1,0.9c0,0-4.4,1.2-7.2,4.2L38.5,364.9z"/>
			<path class="st12" d="M57.3,363.6c0.6-0.1,5.8-3.8,7.3-3.8l1.2,0.6c0,0-5.3,1.9-6.5,3.8L57.3,363.6z"/>
			<path class="st12" d="M51.6,357.8c1,0.2,11.2-2.5,11.3-2.2c0.1,0.2,0.3,1.4,0.3,1.4l-12,2.4L51.6,357.8z"/>
			<path class="st7" d="M33.2,361.1c0.4,0,11.8-3.3,11.8-3.3v-1.5L32,359.8l-0.1,1.7L33.2,361.1z"/>
			<g>
				<polygon class="st4" points="64.6,62 62.5,62.2 61.6,64.1 62.8,65.8 64.9,65.6 65.8,63.7 				"/>
				<path class="st13" d="M41.5,51.8c0,0,1.4-9.3,10.1-10.7c8.7-1.3,15.7,1.3,14.9,10.1C65.6,60.1,64.2,69.8,60,74
					c0,0-1.7,1.1-3.9,1.1l0.7,11.8c0,0-9.9,6.3-15.6-2.1l0.3-21.6c0,0-6-2.4-6.3-8.2C34.9,49.3,41.5,51.8,41.5,51.8z"/>
				<path class="st20" d="M60.6,44.6c0,0-4.4,8.7-9.7,8.1c-5.3-0.6-5.7,5.3-7.5,4.1c-1.8-1.2-1.2-4.9-5.2-5.6c0,0-3.2-0.3-2.8,4.3
					c0.2,1.9,1.1,3.7,2.4,5c0.9,0.9,2.1,1.9,3.6,2.7l0.1,8.1c0,0-12.2-2.6-12.7-15.5c-1-22,12.8-21.7,12.8-21.7s9.9-3.7,14.5,0
					c4.5,3.7,9-1,12.1,11.5c0.3,1.1,0.7,10.7-2.7,13.5c0,0-0.1-8.5-1.2-10.6C63.2,46.4,62,43.2,60.6,44.6z"/>
				<path class="st21" d="M56,77.1l0.2,0l-0.1-1.9c0,0-5.9,0.3-10.2-2.3C41.6,70.3,48.3,78.2,56,77.1z"/>
				<polygon class="st4" points="39.6,60.6 37.5,60.8 36.6,62.7 37.8,64.4 39.9,64.2 40.8,62.3 				"/>
				<path class="st20" d="M40.6,37.3c0,0-7.4-3.7-6.4-11.8c1.1-8.1,9.6-5.9,11.2-4.9c1.6,1,5.6-2.1,6.4,3.1c0.7,5.2,0.3,10.6-3,13.4
					C45.5,39.7,40.6,37.3,40.6,37.3z"/>
			</g>
		</g>
	</g>
</g>
</svg>
